<svg width="4768" height="4234" viewBox="0 0 4768 4234" fill="none" xmlns="http://www.w3.org/2000/svg">
<path d="M4359.7 2466.72C4284.96 2490.06 4199.61 2513.4 4101.52 2535.59C4014.89 2555.49 3922.32 2573.47 3825.51 2589.92C3887.93 2658.41 3945.68 2725.76 3998.33 2791.18C4004.28 2798.84 4010.65 2806.49 4016.17 2813.76C4067.55 2878.81 4110.86 2938.5 4146.96 2993.59C4239.1 2992.83 4320.21 2986.71 4389.42 2974.85C4479.87 2959.16 4594.1 2925.1 4623.82 2851.64C4653.54 2778.18 4590.27 2685.96 4532.1 2621.3C4487.51 2572.32 4429.76 2520.67 4359.7 2466.72Z" fill="#4990CD"/>
<path d="M407.636 1767.45C482.371 1744.11 567.723 1720.77 665.813 1698.58C752.439 1678.68 845.009 1660.7 941.825 1644.25C879.404 1575.76 821.654 1508.42 768.999 1442.99C709.55 1369.14 660.718 1301.8 620.377 1240.58C528.232 1241.34 447.127 1247.47 377.911 1259.33C287.464 1275.01 173.238 1309.07 143.513 1382.53C113.789 1456 177.059 1548.21 235.234 1612.87C279.821 1661.85 337.146 1713.5 407.636 1767.45Z" fill="#4990CD"/>
<path d="M928.689 1194.27C1017.86 1202.31 1111.28 1213.79 1208.52 1228.33C1175.83 1144.53 1146.95 1063.42 1122.75 985.744C1095.15 897.74 1074.34 819.684 1059.9 749.664C972.851 721.732 894.294 702.601 825.079 692.652C818.285 691.505 811.066 690.739 803.847 689.974C801.724 689.592 799.601 689.592 797.477 689.209C791.957 688.444 786.437 688.061 780.492 687.678C778.369 687.678 776.246 687.296 774.122 687.296C766.479 686.531 759.26 686.148 751.617 685.765C749.918 685.765 748.22 685.765 746.521 685.765C740.577 685.383 734.207 685.383 728.262 685.383C724.44 685.383 720.619 685.383 716.797 685.383C715.948 685.383 715.098 685.383 714.249 685.383C708.729 685.383 703.209 685.765 697.264 686.148C696.415 686.148 695.565 686.148 694.716 686.148C689.62 686.531 684.525 686.913 679.429 687.296C678.58 687.296 678.155 687.296 677.306 687.678C671.786 688.444 666.69 688.826 661.17 689.591C660.321 689.591 659.047 689.974 658.198 689.974C653.527 690.739 648.431 691.505 643.76 692.652C643.335 692.652 642.486 693.035 642.061 693.035C636.966 694.183 631.87 695.331 627.199 696.861C626.35 697.244 625.076 697.627 624.227 697.627C619.556 699.157 615.309 700.305 611.063 702.218C610.638 702.218 610.214 702.601 609.789 702.601C605.118 704.514 600.872 706.427 596.625 708.34C595.776 708.723 594.927 709.106 593.653 709.871C589.407 711.784 585.585 714.08 581.763 716.375C581.339 716.375 581.339 716.758 580.914 716.758C577.092 719.436 573.271 722.115 569.874 724.793C569.024 725.558 568.175 726.323 567.326 726.706C563.929 729.767 560.532 732.828 557.134 736.272C524.013 771.856 518.917 823.893 526.985 876.313C532.506 912.28 543.546 949.011 555.861 980.769C578.791 1040.46 613.611 1107.04 659.047 1179.35C738.453 1180.5 827.626 1185.09 928.689 1194.27Z" fill="#4990CD"/>
<path d="M4209.4 3497.57C4242.52 3461.99 4247.61 3409.95 4239.55 3357.53C4234.03 3321.56 4222.99 3284.83 4210.67 3253.07C4187.74 3193.38 4152.92 3126.81 4107.49 3054.49C4028.5 3053.73 3939.33 3048.75 3838.69 3039.57C3749.52 3031.53 3656.1 3020.06 3558.86 3005.52C3591.56 3089.31 3620.43 3170.43 3644.63 3248.1C3672.24 3336.1 3693.04 3414.16 3707.48 3484.18C3794.53 3512.11 3873.09 3531.24 3942.3 3541.19C4033.6 3554.2 4153.77 3557.64 4209.4 3497.57Z" fill="#4990CD"/>
<path d="M700.253 1241.31C736.347 1293.73 777.536 1349.21 823.822 1407.37C881.996 1480.07 946.965 1555.07 1018.3 1631.97C1128.71 1614.75 1244.63 1599.83 1364.81 1587.21C1316.82 1486.96 1273.08 1389.01 1234.44 1294.11C1125.31 1277.28 1020.43 1263.89 921.487 1254.7C842.505 1247.43 768.619 1243.23 700.253 1241.31Z" fill="#4990CD"/>
<path d="M4067.13 2992.86C4031.04 2940.44 3989.85 2884.96 3943.56 2826.8C3885.39 2754.11 3820.42 2679.11 3749.08 2602.2C3638.67 2619.42 3522.75 2634.34 3402.58 2646.97C3450.56 2747.22 3494.3 2845.17 3532.94 2940.06C3642.07 2956.9 3746.96 2970.29 3845.9 2979.47C3924.88 2986.36 3998.34 2990.95 4067.13 2992.86Z" fill="#4990CD"/>
<path d="M3150.79 3314.34C3149.94 3403.11 3146.11 3488.06 3139.32 3568.79C3138.9 3574.53 3138.47 3580.27 3138.05 3586.01C3137.62 3592.9 3136.77 3599.4 3136.35 3606.29C3129.98 3673.25 3121.49 3742.12 3109.17 3809.84C3180.51 3863.03 3246.75 3905.12 3308.33 3936.11C3389.01 3976.67 3500.68 4016.46 3575.84 3977.43C3651 3938.41 3668.41 3830.89 3669.69 3747.86C3670.54 3684.73 3663.32 3611.64 3648.03 3529.76C3574.15 3504.51 3492.19 3472.75 3400.9 3432.96C3320.21 3397.37 3236.56 3357.96 3150.79 3314.34Z" fill="#4990CD"/>
<path d="M1097.69 486.239C1096.84 549.372 1104.06 622.454 1119.35 704.336C1193.23 729.589 1275.19 761.347 1366.49 801.14C1447.17 836.341 1530.82 875.752 1616.59 919.371C1617.44 830.602 1621.27 745.659 1628.06 664.925C1634.43 586.487 1644.2 504.223 1658.63 423.871C1587.29 370.686 1521.05 328.597 1459.48 297.605C1456.51 296.074 1453.11 294.544 1449.71 292.631C1448.86 292.248 1448.02 291.866 1447.17 291.483C1444.62 290.335 1441.65 288.804 1438.67 287.657C1437.82 287.274 1437.4 286.891 1436.55 286.891C1433.15 285.361 1429.76 283.83 1426.36 282.3C1425.51 281.917 1424.66 281.535 1423.81 281.152C1420.84 280.004 1418.29 278.856 1415.32 277.708C1414.47 277.326 1413.62 276.943 1412.35 276.561C1408.95 275.03 1405.13 273.5 1401.73 272.352C1401.31 271.969 1400.46 271.969 1400.03 271.586C1397.06 270.438 1394.09 269.291 1390.69 268.143C1389.84 267.76 1388.57 267.378 1387.72 266.995C1384.32 265.847 1380.92 264.699 1377.53 263.169C1377.1 263.169 1376.68 262.786 1376.25 262.786C1372.43 261.638 1369.03 260.49 1365.21 258.96C1363.94 258.577 1363.09 258.194 1361.81 257.812C1358.84 257.047 1355.87 255.899 1352.9 255.133C1352.05 254.751 1351.2 254.751 1350.35 254.368C1346.53 253.22 1343.13 252.455 1339.31 251.307C1338.46 250.925 1337.61 250.925 1336.34 250.542C1333.36 249.777 1330.39 249.011 1327.84 248.629C1326.57 248.246 1325.72 248.246 1324.45 247.864C1320.63 247.098 1317.23 246.333 1313.41 245.568C1312.98 245.568 1312.13 245.185 1311.71 245.185C1308.74 244.803 1305.34 244.037 1302.37 243.655C1301.09 243.655 1300.24 243.272 1298.97 243.272C1296 242.889 1293.02 242.507 1289.63 242.124C1288.78 242.124 1288.35 242.124 1287.5 241.742C1284.11 241.359 1280.28 240.976 1276.89 240.976C1275.61 240.976 1274.76 240.976 1273.49 240.976C1270.94 240.976 1267.97 240.594 1265.42 240.594C1264.57 240.594 1263.3 240.594 1262.45 240.594C1260.33 240.594 1258.63 240.594 1256.51 240.594C1255.23 240.594 1254.38 240.594 1253.11 240.594C1250.14 240.594 1247.16 240.976 1244.19 241.359C1243.34 241.359 1242.07 241.742 1241.22 241.742C1239.1 242.124 1237.4 242.124 1235.27 242.507C1234 242.507 1232.73 242.889 1231.88 243.272C1230.18 243.655 1228.48 244.037 1226.78 244.037C1225.51 244.42 1224.23 244.42 1222.96 244.803C1221.26 245.185 1219.56 245.568 1217.86 245.95C1216.59 246.333 1215.32 246.716 1214.47 247.098C1212.77 247.481 1211.07 248.246 1209.37 248.629C1208.1 249.011 1207.25 249.394 1205.97 249.777C1204.28 250.542 1202.58 251.307 1200.88 251.69C1200.03 252.073 1199.18 252.455 1198.33 252.838C1195.78 253.986 1193.23 255.133 1190.69 256.664C1116.8 296.074 1098.97 403.209 1097.69 486.239Z" fill="#4990CD"/>
<path d="M1284.94 1240.58C1395.34 1258.56 1509.99 1279.99 1627.62 1305.24C1620.4 1196.19 1617 1090.97 1616.58 989.958C1520.61 940.216 1427.19 895.449 1337.17 856.421C1265.41 825.046 1197.89 798.262 1134.19 775.305C1148.21 835.76 1165.62 900.423 1187.27 969.296C1214.45 1055.77 1247.15 1146.45 1284.94 1240.58Z" fill="#4990CD"/>
<path d="M3579.66 3264.66C3552.48 3178.18 3519.78 3087.5 3482.41 2993.76C3372.01 2975.77 3257.36 2954.35 3139.73 2929.09C3146.95 3038.14 3150.35 3143.36 3150.77 3244.38C3246.74 3294.12 3340.16 3338.89 3430.18 3377.91C3501.95 3409.29 3569.46 3436.07 3633.16 3459.03C3619.15 3398.19 3601.31 3333.53 3579.66 3264.66Z" fill="#4990CD"/>
<path d="M3117.64 2672.35C3124.44 2737.78 3130.38 2802.44 3135.05 2865.96C3245.03 2889.68 3352.04 2910.34 3455.23 2927.94C3418.29 2839.18 3377.1 2748.11 3332.08 2654.75C3262.02 2660.87 3190.68 2666.99 3117.64 2672.35Z" fill="#4990CD"/>
<path d="M1649.67 1562C1642.88 1496.57 1636.94 1431.91 1632.26 1368.39C1522.28 1344.67 1415.28 1324.01 1312.09 1306.41C1349.03 1395.18 1390.22 1486.24 1435.23 1579.6C1505.3 1573.48 1576.64 1567.36 1649.67 1562Z" fill="#4990CD"/>
<path d="M1731.68 400.328C1791.56 446.625 1856.53 502.106 1927.02 567.535C1989.44 625.312 2053.13 688.445 2117.25 755.787C2152.07 672.757 2187.74 593.936 2224.26 520.472C2259.93 448.921 2300.27 374.309 2344.43 303.524C2297.72 231.59 2251.01 171.518 2205.15 123.69C2203.45 121.777 2201.33 119.863 2199.63 117.95C2199.21 117.185 2198.36 116.802 2197.93 116.037C2196.66 114.889 2195.38 113.359 2194.11 112.211C2193.26 111.446 2192.41 110.68 2191.99 109.915C2190.71 108.767 2189.44 107.619 2188.59 106.471C2187.74 105.706 2186.89 104.941 2186.04 104.176C2184.77 103.028 2183.5 101.88 2182.65 100.732C2181.8 99.9668 2180.95 99.2016 2180.1 98.4364C2178.82 97.2885 2177.55 96.1408 2176.7 94.9929C2175.85 94.2276 2175 93.4622 2174.15 92.6969C2172.88 91.5491 2171.61 90.4013 2170.33 89.2534C2169.48 88.4882 2168.63 87.7227 2167.78 86.9575C2166.51 85.8096 2165.24 84.6619 2163.96 83.514C2163.11 82.7488 2162.26 81.9836 2161.41 81.2183C2160.14 80.0705 2158.87 78.9224 2157.59 77.7746C2156.74 77.0093 2155.89 76.2442 2155.04 75.4789C2153.77 74.331 2152.07 73.183 2150.8 72.0351C2149.95 71.2699 2149.1 70.5048 2148.25 70.1222C2146.55 68.9743 2145.28 67.4439 2143.58 66.296C2142.73 65.9134 2142.31 65.1481 2141.46 64.7654C2136.79 61.3218 2132.11 57.4954 2127.44 54.4344C2127.02 54.0518 2126.17 53.6691 2125.74 52.9039C2124.05 51.756 2122.35 50.6082 2120.65 49.0777C2119.8 48.3124 2118.95 47.93 2118.1 47.1647C2116.4 46.0168 2115.13 45.2515 2113.43 44.1036C2112.58 43.3384 2111.31 42.9557 2110.46 42.1904C2109.18 41.4251 2107.49 40.2773 2106.21 39.512C2105.36 38.7468 2104.09 38.3643 2103.24 37.5991C2101.97 36.8338 2100.27 35.686 2098.99 34.9207C2098.14 34.1555 2096.87 33.7727 2096.02 33.0075C2094.75 32.2422 2093.05 31.4771 2091.77 30.7118C2090.93 29.9466 2089.65 29.5638 2088.8 28.7986C2087.53 28.0333 2085.83 27.2682 2084.56 26.5029C2083.28 26.1203 2082.43 25.355 2081.16 24.9724C2079.88 24.2071 2078.19 23.4417 2076.91 22.6764C2076.06 22.2938 2074.79 21.5288 2073.94 21.1462C2072.24 20.3809 2070.97 19.6156 2069.27 19.2329C2068.42 18.8503 2067.15 18.4676 2066.3 17.7024C2064.6 16.9371 2062.9 16.1721 2061.2 15.7894C2060.35 15.4068 2059.5 15.024 2058.65 14.6413C2056.53 13.8761 2054.41 12.7282 2051.86 11.963C2051.43 11.963 2051.01 11.5805 2050.16 11.5805C2047.61 10.8153 2045.49 10.0498 2042.94 9.28459C2042.09 8.90197 2040.82 8.51947 2039.97 8.51947C2038.27 8.13685 2036.57 7.37156 2035.3 6.98894C2034.02 6.60631 2033.17 6.22381 2031.9 6.22381C2030.63 5.84119 2028.93 5.45832 2027.65 5.07569C2026.38 4.69307 2025.53 4.6932 2024.26 4.31057C2022.98 3.92794 2021.28 3.54516 2020.01 3.54516C2018.74 3.16253 2017.46 3.16266 2016.61 2.78003C2015.34 2.39741 2013.64 2.39754 2012.37 2.01491C2011.09 2.01491 2009.82 1.6322 2008.55 1.6322C2007.27 1.6322 2006 1.2495 2004.3 1.2495C2003.03 1.2495 2001.75 0.86679 2000.48 0.86679C1999.2 0.86679 1997.51 0.867 1996.23 0.484375C1994.96 0.484375 1993.68 0.484375 1992.41 0.484375C1991.56 0.484375 1990.29 0.484375 1989.44 0.484375C1986.89 0.484375 1984.77 0.484165 1982.22 0.86679C1981.37 0.86679 1980.52 0.86679 1979.25 0.86679C1975.85 1.24942 1972.88 1.63229 1969.48 2.01491C1884.13 15.7894 1826.8 111.063 1794.11 188.736C1769.48 247.66 1748.25 318.446 1731.68 400.328Z" fill="#4990CD"/>
<path d="M3035.7 3833.97C2975.83 3787.68 2910.86 3732.2 2840.37 3666.77C2777.95 3608.99 2714.25 3545.86 2650.13 3478.52C2615.31 3561.55 2579.64 3640.37 2543.13 3713.83C2541 3718.04 2538.88 3722.25 2536.76 3726.46C2532.51 3734.87 2528.26 3743.29 2523.59 3752.09C2521.47 3756.3 2519.35 3760.51 2516.8 3764.72C2487.92 3820.2 2456.08 3876.83 2422.53 3930.78C2469.24 4002.71 2515.95 4062.78 2561.81 4110.61C2622.11 4173.36 2712.13 4245.68 2797.48 4231.91C2856.51 4222.72 2901.52 4174.51 2935.06 4120.18C2936.76 4117.88 2938.03 4115.2 2939.73 4112.91C2942.71 4107.93 2945.68 4102.96 2948.23 4097.99C2957.57 4080.39 2966.06 4062.4 2973.28 4045.57C2997.91 3986.64 3018.72 3915.86 3035.7 3833.97Z" fill="#4990CD"/>
<path d="M3083.7 3279.49C2986.88 3228.6 2887.52 3173.12 2786.03 3113.05C2751.21 3217.5 2714.69 3317.75 2676.9 3413.02C2748.24 3489.17 2819.15 3559.95 2888.79 3624.62C2944 3675.89 2997.5 3722.19 3048.88 3763.13C3058.65 3701.91 3066.71 3635.71 3072.66 3564.16C3079.45 3474.63 3083.28 3379.35 3083.7 3279.49Z" fill="#4990CD"/>
<path d="M1981.33 1121.14C2016.15 1016.69 2052.67 916.438 2090.46 821.165C2019.12 745.022 1948.21 674.237 1878.57 609.573C1823.37 558.301 1769.86 512.003 1718.48 471.062C1708.72 532.283 1700.65 598.477 1694.7 670.028C1687.48 759.562 1683.66 854.836 1683.24 954.701C1780.48 1005.21 1880.27 1061.07 1981.33 1121.14Z" fill="#4990CD"/>
<path d="M1904.49 1369.04C1922.75 1305.53 1941.86 1242.78 1961.39 1181.94C1867.12 1125.69 1774.55 1073.27 1684.11 1025.06C1685.38 1119.57 1689.2 1218.29 1696 1319.68C1764.79 1335.37 1834 1351.82 1904.49 1369.04Z" fill="#4990CD"/>
<path d="M2862.85 2864.73C2844.59 2928.25 2825.49 2991 2805.95 3051.84C2900.22 3108.08 2992.79 3160.5 3083.24 3208.71C3081.97 3114.21 3078.14 3015.49 3071.35 2914.09C3002.56 2898.79 2933.34 2882.34 2862.85 2864.73Z" fill="#4990CD"/>
<path d="M1855.2 1549.22C1865.81 1508.28 1876.86 1468.11 1887.9 1427.93C1824.63 1412.24 1762.2 1397.32 1701.06 1383.55C1705.73 1440.56 1710.82 1498.72 1717.19 1557.26C1762.63 1554.2 1808.49 1551.52 1855.2 1549.22Z" fill="#4990CD"/>
<path d="M2912.12 2684.49C2901.5 2725.43 2890.46 2765.61 2879.42 2805.78C2942.69 2821.47 3005.11 2836.39 3066.26 2850.17C3061.59 2793.15 3056.5 2734.99 3050.13 2676.45C3004.69 2679.51 2958.83 2682.19 2912.12 2684.49Z" fill="#4990CD"/>
<path d="M2422.53 302.657C2450.13 346.659 2478.16 396.017 2507.03 450.35C2518.92 472.542 2530.81 495.882 2542.7 519.988C2579.22 593.452 2615.31 672.273 2649.71 755.302C2713.83 687.96 2777.52 624.827 2839.94 567.051C2910.43 501.622 2975.4 446.524 3035.28 399.843C3018.72 317.962 2997.91 247.176 2972.85 188.252C2940.16 110.579 2882.83 15.305 2797.48 1.53054C2790.26 0.38266 2783.04 0 2776.25 0C2729.54 0 2681.98 22.9577 2639.94 53.9503C2631.02 60.4549 2622.53 67.3422 2614.04 74.2294C2609.79 77.673 2605.55 81.1166 2601.72 84.9429C2587.71 97.5695 2574.12 110.579 2562.23 123.205C2515.95 171.034 2469.24 231.106 2422.53 302.657Z" fill="#4990CD"/>
<path d="M1969.85 4232.29C2031.43 4242.24 2095.12 4207.42 2148.63 4164.18C2169.43 4146.96 2188.97 4128.6 2205.95 4111C2251.81 4063.17 2298.52 4003.1 2345.23 3931.16C2320.18 3890.99 2294.7 3846.6 2268.37 3798.01C2253.94 3771.22 2239.5 3743.29 2225.06 3713.83C2188.54 3640.37 2152.45 3561.55 2118.05 3478.52C2053.93 3545.86 1990.24 3608.99 1927.82 3666.77C1857.33 3732.2 1792.36 3787.29 1732.48 3833.97C1749.05 3915.86 1769.85 3986.64 1794.91 4045.57C1827.18 4123.24 1884.08 4218.51 1969.85 4232.29Z" fill="#4990CD"/>
<path d="M2383.46 3868.33C2416.15 3813.99 2448.42 3754.3 2481.12 3688.87C2521.89 3606.99 2561.38 3518.61 2600.02 3424.86C2528.26 3347.19 2456.07 3264.16 2383.46 3176.92C2311.27 3264.54 2238.65 3347.57 2166.89 3424.86C2205.11 3518.61 2245.02 3606.99 2285.79 3688.87C2318.49 3754.3 2351.18 3813.99 2383.46 3868.33Z" fill="#4990CD"/>
<path d="M2167.36 808.931C2239.12 886.604 2311.31 969.634 2383.92 1056.87C2456.11 969.252 2528.72 886.222 2600.48 808.931C2562.27 715.188 2522.35 626.802 2481.59 544.92C2448.89 479.491 2416.62 419.802 2383.92 365.469C2351.22 419.802 2318.95 479.491 2286.25 544.92C2245.07 626.802 2205.57 715.188 2167.36 808.931Z" fill="#4990CD"/>
<path d="M2217 1266.39C2258.62 1212.06 2299.81 1159.26 2341.42 1107.99C2274.33 1026.11 2206.81 948.433 2140.14 875.352C2105.32 964.503 2071.78 1058.63 2039.5 1156.2C2098.53 1191.4 2157.55 1228.51 2217 1266.39Z" fill="#4990CD"/>
<path d="M2549.95 2967.19C2508.34 3021.52 2467.15 3074.32 2425.53 3125.59C2492.63 3207.48 2560.14 3285.15 2626.81 3358.23C2661.63 3269.08 2695.18 3174.95 2727.45 3077.38C2668.85 3042.18 2609.4 3005.45 2549.95 2967.19Z" fill="#4990CD"/>
<path d="M2665.01 2813.39C2639.53 2848.59 2614.05 2883.03 2588.15 2917.46C2641.66 2951.52 2694.31 2984.81 2746.96 3016.95C2764.37 2961.85 2781.36 2905.99 2797.92 2848.59C2753.76 2837.11 2709.6 2825.25 2665.01 2813.39Z" fill="#4990CD"/>
<path d="M2102.35 1420.76C2127.83 1385.56 2153.31 1351.12 2179.21 1316.69C2125.71 1282.63 2073.05 1249.34 2020.4 1217.2C2002.99 1272.3 1986 1328.16 1969.44 1385.56C2013.6 1397.04 2057.76 1408.52 2102.35 1420.76Z" fill="#4990CD"/>
<path d="M2751.6 2691.46C2735.46 2714.42 2719.33 2737.37 2703.19 2760.33C2740.56 2770.28 2777.5 2780.23 2814.45 2789.79C2823.79 2756.12 2833.13 2722.45 2842.05 2688.02C2811.9 2689.16 2781.75 2690.31 2751.6 2691.46Z" fill="#4990CD"/>
<path d="M2015.71 1542.64C2031.85 1519.68 2047.98 1496.72 2064.12 1473.77C2026.75 1463.82 1989.81 1453.87 1952.87 1444.3C1943.52 1477.98 1934.18 1511.65 1925.26 1546.08C1954.99 1544.55 1985.14 1543.4 2015.71 1542.64Z" fill="#4990CD"/>
<path d="M3108.77 424.355C3121.51 494.758 3131.7 574.727 3139.35 665.409C3145.71 745.761 3149.54 831.086 3150.81 919.855C3236.59 876.236 3320.24 836.826 3400.92 801.624C3492.22 761.831 3574.17 730.073 3648.06 704.82C3663.34 622.938 3670.56 549.857 3669.71 486.724C3668.44 403.694 3651.03 296.559 3575.87 257.148C3554.21 245.67 3529.58 241.078 3503.26 241.078C3438.71 241.078 3365.68 269.775 3308.35 298.472C3246.78 329.082 3180.11 371.17 3108.77 424.355Z" fill="#4990CD"/>
<path d="M1191.96 3977.05C1267.12 4016.08 1378.8 3976.29 1459.48 3935.73C1520.63 3904.73 1587.29 3862.65 1658.63 3809.84C1645.89 3739.44 1635.7 3659.47 1628.06 3568.79C1621.69 3488.44 1617.87 3403.11 1616.59 3314.34C1530.82 3357.96 1447.17 3397.37 1366.49 3432.58C1275.19 3472.37 1193.23 3504.13 1119.35 3529.38C1104.06 3611.26 1096.84 3684.34 1097.69 3747.48C1098.97 3830.89 1116.8 3938.02 1191.96 3977.05Z" fill="#4990CD"/>
<path d="M2888.39 609.823C2819.18 674.104 2748.26 744.89 2676.5 821.415C2714.29 916.306 2750.81 1016.55 2785.63 1121.39C2886.69 1061.32 2986.48 1005.84 3083.3 954.951C3082.87 855.086 3079.05 759.812 3071.83 670.278C3065.89 598.727 3058.25 532.533 3048.05 471.312C2997.1 512.253 2944.02 558.169 2888.39 609.823Z" fill="#4990CD"/>
<path d="M1878.61 3624.13C1947.83 3559.85 2018.74 3489.07 2090.51 3412.54C2052.71 3317.65 2016.2 3217.4 1981.38 3112.56C1880.31 3172.63 1780.52 3228.12 1683.71 3279C1684.13 3378.87 1687.95 3474.14 1695.17 3563.68C1701.12 3635.23 1708.76 3701.42 1718.95 3762.64C1769.91 3721.7 1823.41 3675.4 1878.61 3624.13Z" fill="#4990CD"/>
<path d="M2217.05 2967.19C2157.6 3005.45 2098.57 3042.18 2039.97 3077.77C2072.25 3175.34 2105.79 3269.08 2140.61 3358.61C2207.28 3285.53 2274.37 3207.48 2341.89 3125.98C2300.27 3074.32 2258.66 3021.52 2217.05 2967.19Z" fill="#4990CD"/>
<path d="M2549.91 1266.54C2609.36 1228.28 2668.38 1191.55 2726.98 1155.96C2694.71 1058.39 2661.16 964.652 2626.34 875.117C2559.67 948.199 2492.58 1026.25 2425.06 1107.75C2467.1 1159.79 2508.72 1212.59 2549.91 1266.54Z" fill="#4990CD"/>
<path d="M2495.15 2932.07C2458.2 2907.97 2420.84 2883.1 2383.47 2858.23C2346.1 2883.48 2309.16 2907.97 2271.79 2932.07C2308.73 2980.67 2346.1 3028.11 2383.47 3074.41C2420.84 3028.11 2458.2 2980.67 2495.15 2932.07Z" fill="#4990CD"/>
<path d="M2383.47 1376.01C2420.84 1350.76 2457.78 1326.27 2495.15 1302.16C2458.2 1253.57 2420.84 1206.13 2383.47 1159.83C2346.1 1206.13 2309.16 1253.57 2271.79 1302.16C2309.16 1326.27 2346.52 1350.76 2383.47 1376.01Z" fill="#4990CD"/>
<path d="M2255.63 1463.93C2279.41 1447.09 2303.61 1430.64 2327.39 1414.19C2295.97 1393.14 2264.97 1372.48 2233.97 1352.2C2212.32 1380.9 2191.08 1409.98 2169.43 1439.06C2198.3 1447.09 2226.75 1455.51 2255.63 1463.93Z" fill="#4990CD"/>
<path d="M2511.31 2770.23C2487.53 2787.06 2463.33 2803.52 2439.55 2819.97C2470.97 2841.01 2501.97 2861.67 2532.97 2881.95C2554.62 2853.26 2575.85 2824.18 2597.51 2795.1C2569.06 2786.68 2540.19 2778.64 2511.31 2770.23Z" fill="#4990CD"/>
<path d="M2149.95 1538.95C2163.96 1529.01 2177.55 1519.06 2191.56 1509.11C2171.6 1503.37 2151.22 1497.63 2131.26 1492.27C2119.8 1507.96 2108.33 1524.03 2097.29 1540.1C2114.7 1539.72 2132.54 1539.34 2149.95 1538.95Z" fill="#4990CD"/>
<path d="M2617.02 2695.19C2603.01 2705.14 2589.42 2715.09 2575.41 2725.04C2595.37 2730.78 2615.75 2736.52 2635.71 2741.88C2647.17 2726.19 2658.64 2710.12 2669.68 2694.05C2652.69 2694.43 2634.86 2694.81 2617.02 2695.19Z" fill="#4990CD"/>
<path d="M3707.88 749.945C3693.02 819.965 3672.64 898.021 3645.04 986.024C3620.41 1063.7 3591.96 1144.81 3559.26 1228.61C3656.5 1214.07 3749.92 1202.59 3839.09 1194.56C3939.73 1185.37 4028.9 1180.78 4107.89 1179.63C4153.32 1107.32 4188.14 1041.12 4211.07 981.05C4241.22 902.612 4265.85 796.242 4209.8 736.553C4173.28 697.142 4108.74 684.898 4043.34 684.898C4008.95 684.898 3974.13 688.342 3942.7 692.934C3873.06 702.882 3794.51 722.013 3707.88 749.945Z" fill="#4990CD"/>
<path d="M1059.47 3484.18C1074.34 3414.16 1094.72 3336.1 1122.32 3248.1C1146.95 3170.43 1175.4 3089.31 1208.09 3005.52C1110.85 3020.06 1017.43 3031.53 928.261 3039.57C914.248 3040.72 900.235 3042.25 886.647 3043.01C802.569 3049.9 727.409 3053.34 659.468 3054.11C614.032 3126.43 579.212 3192.62 556.282 3252.69C526.133 3331.13 501.504 3437.5 557.555 3497.19C613.607 3557.26 733.779 3553.82 824.65 3540.81C894.29 3531.24 972.423 3512.11 1059.47 3484.18Z" fill="#4990CD"/>
<path d="M1337.14 3377.91C1426.74 3338.89 1520.16 3294.12 1616.55 3244.38C1616.98 3143.36 1620.8 3038.14 1627.59 2929.09C1509.55 2954.35 1394.89 2975.77 1284.91 2993.76C1247.55 3087.88 1214.85 3178.18 1187.67 3264.66C1166.02 3333.53 1148.18 3398.19 1134.59 3458.65C1197.86 3436.07 1265.38 3408.91 1337.14 3377.91Z" fill="#4990CD"/>
<path d="M3430.18 856.281C3340.59 895.309 3247.17 940.076 3150.77 989.817C3150.35 1090.83 3146.53 1196.05 3139.73 1305.1C3257.78 1279.85 3372.43 1258.42 3482.41 1240.44C3519.78 1146.31 3552.48 1056.01 3579.66 969.538C3601.31 900.665 3619.15 836.002 3632.73 775.547C3569.46 798.122 3501.52 824.906 3430.18 856.281Z" fill="#4990CD"/>
<path d="M1904.49 2864.73C1834 2882.34 1764.79 2898.79 1696 2913.71C1689.2 3015.49 1684.96 3113.82 1684.11 3208.33C1774.55 3160.12 1867.12 3107.7 1961.39 3051.46C1941.86 2991 1922.75 2928.63 1904.49 2864.73Z" fill="#4990CD"/>
<path d="M2862.85 1369.04C2933.34 1351.44 3002.56 1334.99 3071.35 1320.07C3078.14 1218.29 3082.39 1119.95 3083.24 1025.06C2992.79 1073.27 2900.22 1125.69 2805.95 1181.94C2825.49 1243.16 2844.59 1305.53 2862.85 1369.04Z" fill="#4990CD"/>
<path d="M2102.35 2813.39C2057.76 2825.63 2013.6 2837.11 1969.44 2848.59C1986 2905.6 2002.99 2961.85 2020.4 3016.95C2073.05 2984.81 2126.13 2951.9 2179.21 2917.46C2153.31 2883.03 2127.83 2848.21 2102.35 2813.39Z" fill="#4990CD"/>
<path d="M2665.01 1420.76C2709.6 1408.52 2753.76 1397.04 2797.92 1385.56C2781.36 1328.55 2764.37 1272.3 2746.96 1217.2C2694.31 1249.34 2641.23 1282.25 2588.15 1316.69C2613.63 1351.12 2639.53 1385.56 2665.01 1420.76Z" fill="#4990CD"/>
<path d="M2255.63 2770.23C2226.75 2778.64 2197.88 2786.68 2169.43 2794.71C2190.66 2824.18 2212.32 2853.26 2233.97 2881.57C2264.97 2861.29 2296.39 2840.63 2327.39 2819.59C2303.61 2803.52 2279.83 2787.06 2255.63 2770.23Z" fill="#4990CD"/>
<path d="M2511.31 1464.03C2540.19 1455.61 2569.06 1447.58 2597.51 1439.54C2576.28 1410.08 2554.62 1381 2532.97 1352.69C2501.97 1372.97 2470.55 1393.63 2439.55 1414.67C2463.75 1430.74 2487.53 1447.2 2511.31 1464.03Z" fill="#4990CD"/>
<path d="M2433.99 2747.31C2417.43 2742.33 2400.45 2737.36 2383.89 2732.38C2367.33 2737.36 2350.34 2742.33 2333.78 2747.31C2350.34 2758.78 2367.33 2770.26 2383.89 2781.74C2400.45 2770.65 2417.01 2759.17 2433.99 2747.31Z" fill="#4990CD"/>
<path d="M2383.49 1501.86C2400.05 1496.88 2417.03 1491.91 2433.59 1486.94C2417.03 1475.46 2400.05 1463.98 2383.49 1452.5C2366.93 1463.98 2349.94 1475.46 2333.38 1486.94C2349.94 1491.53 2366.93 1496.5 2383.49 1501.86Z" fill="#4990CD"/>
<path d="M2270.09 1536.93C2272.64 1536.16 2275.62 1535.01 2278.16 1534.25C2275.19 1533.48 2272.22 1532.34 2268.82 1531.57C2266.27 1533.48 2263.73 1535.01 2261.18 1536.93C2264.15 1536.93 2267.12 1536.93 2270.09 1536.93Z" fill="#4990CD"/>
<path d="M2497.26 2697.18C2494.71 2697.94 2491.74 2699.09 2489.19 2699.86C2492.16 2700.62 2495.14 2701.77 2498.53 2702.54C2501.08 2700.62 2503.63 2699.09 2506.18 2697.18C2502.78 2697.18 2500.23 2697.18 2497.26 2697.18Z" fill="#4990CD"/>
<path d="M235.22 2621.43C233.097 2624.11 230.549 2626.79 228.425 2629.08C226.302 2631.38 224.179 2634.06 222.056 2636.35C168.127 2699.49 116.322 2783.28 143.923 2851.39C173.648 2924.85 287.874 2958.91 378.321 2974.6C447.112 2986.46 528.217 2992.58 620.787 2993.34C661.127 2932.12 710.385 2864.78 769.409 2790.93C821.639 2725.51 879.39 2658.16 942.235 2589.67C845.419 2573.22 753.273 2555.24 666.223 2535.34C568.133 2513.15 482.357 2489.81 408.046 2466.47C337.132 2520.8 279.806 2572.46 235.22 2621.43Z" fill="#4990CD"/>
<path d="M4531.72 1612.74C4589.9 1548.46 4653.17 1455.86 4623.44 1382.4C4593.72 1308.94 4479.49 1274.88 4389.05 1259.19C4380.13 1257.66 4371.21 1256.13 4361.87 1254.99C4358.9 1254.6 4355.92 1254.22 4352.95 1253.84C4346.58 1253.07 4340.21 1251.92 4333.84 1251.16C4330.02 1250.78 4326.2 1250.39 4322.8 1250.01C4316.86 1249.25 4310.91 1248.48 4304.54 1248.1C4300.3 1247.72 4296.48 1247.33 4292.23 1246.95C4286.28 1246.57 4280.34 1245.8 4273.97 1245.42C4269.72 1245.04 4265.05 1244.65 4260.81 1244.65C4254.86 1244.27 4248.49 1243.89 4242.12 1243.51C4237.45 1243.12 4232.78 1243.12 4228.11 1242.74C4221.74 1242.36 4215.8 1241.98 4209 1241.98C4204.33 1241.98 4199.23 1241.59 4194.56 1241.59C4188.19 1241.59 4181.82 1241.21 4175.03 1241.21C4169.93 1241.21 4165.26 1241.21 4160.17 1240.83C4155.5 1240.83 4150.83 1240.83 4146.16 1240.83C4105.82 1302.05 4056.56 1369.39 3997.53 1443.24C3945.3 1508.67 3887.55 1576.01 3824.71 1644.5C3921.52 1660.95 4013.67 1678.93 4100.72 1698.83C4198.81 1721.02 4284.59 1744.36 4358.9 1767.7C4429.81 1713.37 4487.56 1661.72 4531.72 1612.74Z" fill="#4990CD"/>
<path d="M3402.18 1587.21C3522.35 1599.83 3638.27 1614.75 3748.68 1631.97C3819.59 1555.07 3884.56 1480.07 3943.16 1407.37C3989.87 1349.21 4031.06 1294.11 4066.73 1241.31C4062.48 1241.31 4058.66 1241.69 4054.42 1241.69C4048.9 1241.69 4042.95 1242.08 4037.43 1242.08C4031.06 1242.46 4024.69 1242.46 4018.32 1242.84C4012.38 1243.23 4006.86 1243.23 4000.91 1243.61C3994.12 1243.99 3987.32 1244.37 3980.53 1244.76C3975.01 1245.14 3969.06 1245.52 3963.54 1245.9C3956.33 1246.29 3949.11 1246.67 3941.46 1247.43C3935.94 1247.82 3930.42 1248.2 3924.9 1248.58C3916.41 1249.35 3908.34 1249.73 3899.85 1250.5C3895.18 1250.88 3890.51 1251.26 3885.84 1251.64C3872.67 1252.79 3859.08 1253.94 3845.5 1255.09C3746.56 1264.27 3641.67 1277.28 3532.54 1294.5C3493.9 1389.01 3450.16 1486.96 3402.18 1587.21Z" fill="#4990CD"/>
<path d="M700.253 2992.86C768.619 2990.95 842.505 2986.74 921.487 2979.47C1020.43 2970.29 1125.31 2957.28 1234.44 2940.06C1273.08 2845.17 1316.82 2747.22 1364.81 2646.97C1244.63 2634.34 1128.71 2619.42 1018.3 2602.2C947.39 2679.11 882.421 2754.11 823.822 2826.8C777.536 2884.96 736.347 2940.06 700.253 2992.86Z" fill="#4990CD"/>
<path d="M3117.64 1561.85C3190.26 1567.21 3262.02 1572.95 3332.08 1579.84C3377.1 1486.47 3418.29 1395.03 3455.23 1306.64C3352.04 1324.24 3245.03 1344.9 3135.05 1368.63C3130.38 1431.76 3124.86 1496.42 3117.64 1561.85Z" fill="#4990CD"/>
<path d="M1649.67 2672.25C1577.06 2666.89 1505.3 2661.15 1435.23 2654.27C1390.22 2747.63 1349.03 2839.07 1312.09 2927.46C1415.28 2909.86 1522.28 2889.2 1632.26 2865.47C1636.51 2801.96 1642.46 2737.68 1649.67 2672.25Z" fill="#4990CD"/>
<path d="M1855.22 2684.49C1808.51 2682.19 1762.65 2679.51 1716.79 2676.45C1710.42 2734.99 1705.33 2793.15 1700.66 2850.17C1762.23 2836.39 1824.65 2821.47 1887.5 2805.78C1876.45 2765.99 1865.84 2725.43 1855.22 2684.49Z" fill="#4990CD"/>
<path d="M2912.16 1549.22C2958.87 1551.52 3004.73 1554.2 3050.59 1557.26C3056.96 1498.72 3062.06 1440.56 3066.73 1383.55C3005.16 1397.32 2942.74 1412.24 2879.89 1427.93C2890.51 1468.11 2901.55 1508.28 2912.16 1549.22Z" fill="#4990CD"/>
<path d="M2015.71 2691.46C1985.56 2690.31 1955.41 2689.16 1925.26 2688.02C1934.18 2722.07 1943.52 2756.12 1952.87 2789.79C1989.81 2780.23 2026.75 2770.66 2064.12 2760.33C2047.98 2737.37 2031.85 2714.42 2015.71 2691.46Z" fill="#4990CD"/>
<path d="M2751.6 1542.64C2781.75 1543.79 2811.9 1544.94 2842.05 1546.08C2833.13 1512.03 2823.79 1477.98 2814.45 1444.3C2777.5 1453.87 2740.56 1463.44 2703.19 1473.77C2719.33 1496.34 2735.46 1519.3 2751.6 1542.64Z" fill="#4990CD"/>
<path d="M2149.9 2695.19C2132.07 2694.81 2114.66 2694.43 2096.82 2694.05C2108.29 2710.12 2119.33 2726.19 2130.8 2741.88C2150.75 2736.14 2171.14 2730.78 2191.09 2725.04C2177.5 2715.09 2163.92 2705.14 2149.9 2695.19Z" fill="#4990CD"/>
<path d="M2617 1538.95C2634.83 1539.34 2652.24 1539.72 2670.08 1540.1C2658.61 1524.03 2647.57 1507.96 2636.11 1492.27C2616.15 1498.01 2595.77 1503.37 2575.81 1509.11C2589.4 1519.06 2603.41 1529.01 2617 1538.95Z" fill="#4990CD"/>
<path d="M2497.28 1536.93C2500.26 1536.93 2503.23 1536.93 2505.78 1536.93C2503.23 1535.01 2500.68 1533.48 2498.13 1531.57C2495.16 1532.34 2492.19 1533.48 2488.79 1534.25C2491.76 1535.01 2494.31 1535.78 2497.28 1536.93Z" fill="#4990CD"/>
<path d="M2270.07 2697.18C2267.1 2697.18 2264.13 2697.18 2261.58 2697.18C2264.13 2699.09 2266.68 2700.62 2269.22 2702.54C2272.2 2701.77 2275.17 2700.62 2278.57 2699.86C2275.59 2699.09 2272.62 2697.94 2270.07 2697.18Z" fill="#4990CD"/>
<path d="M4593.72 1928.74C4533.42 1896.22 4459.54 1865.61 4373.33 1836.53C4312.19 1881.68 4240.42 1929.51 4156.77 1980.78C4082.88 2025.93 4003.05 2071.46 3918.13 2116.61C4003.05 2161.76 4082.88 2207.3 4156.77 2252.45C4240.42 2303.72 4312.19 2351.93 4373.33 2396.69C4459.96 2367.62 4533.85 2337.01 4593.72 2304.48C4672.7 2262.01 4767.4 2194.67 4767.4 2116.23C4767.4 2038.56 4673.13 1971.6 4593.72 1928.74Z" fill="#4990CD"/>
<path d="M610.624 2252.93C684.51 2207.78 764.341 2162.25 849.268 2117.1C764.341 2071.95 684.51 2026.42 610.624 1981.27C526.971 1929.99 455.208 1881.78 394.06 1837.02C307.435 1866.1 233.973 1896.71 173.675 1929.23C94.6932 1971.7 0 2039.04 0 2117.48C0 2195.92 94.2686 2262.88 173.675 2305.73C233.973 2338.25 307.86 2368.86 394.06 2397.94C455.208 2352.41 526.971 2304.2 610.624 2252.93Z" fill="#4990CD"/>
<path d="M4118.5 2303.48C4036.12 2252.97 3946.52 2202.47 3850.55 2152.34C3753.31 2202.47 3650.13 2252.21 3541.84 2301.18C3625.07 2380.77 3703.2 2459.21 3775.39 2536.5C3884.52 2518.9 3987.71 2499 4084.53 2476.81C4161.38 2459.21 4232.72 2440.84 4297.69 2421.33C4244.19 2383.07 4184.32 2343.66 4118.5 2303.48Z" fill="#4990CD"/>
<path d="M648.833 1930.7C731.212 1981.2 820.81 2031.71 916.777 2081.84C1014.02 2031.71 1117.2 1981.97 1225.49 1932.99C1142.26 1853.41 1064.13 1774.97 991.938 1697.68C882.807 1715.28 779.621 1735.18 682.804 1757.37C605.945 1774.97 534.607 1793.34 469.638 1812.85C523.142 1851.11 583.015 1890.52 648.833 1930.7Z" fill="#4990CD"/>
<path d="M1483.24 1821.76C1451.82 1762.45 1422.09 1703.53 1393.22 1645.37C1281.11 1656.85 1172.41 1670.62 1068.8 1685.93C1137.16 1757.86 1210.63 1830.94 1288.33 1904.79C1351.6 1876.86 1416.57 1848.92 1483.24 1821.76Z" fill="#4990CD"/>
<path d="M3284.14 2412.56C3315.56 2471.87 3345.28 2530.79 3374.16 2588.95C3486.26 2577.47 3594.97 2563.7 3698.58 2548.39C3630.21 2476.46 3556.75 2403.38 3479.04 2329.53C3415.35 2357.46 3350.38 2385.01 3284.14 2412.56Z" fill="#4990CD"/>
<path d="M3222.52 2437.3C3180.91 2454.13 3138.45 2470.97 3095.56 2487.42C3101.08 2529.13 3106.17 2570.45 3110.85 2611.39C3176.24 2606.8 3240.36 2601.44 3303.63 2595.32C3277.73 2543.28 3250.97 2490.48 3222.52 2437.3Z" fill="#4990CD"/>
<path d="M1544.4 1796.31C1586.02 1779.47 1628.48 1762.63 1671.37 1746.18C1665.85 1704.48 1660.75 1663.15 1656.08 1622.21C1590.69 1626.8 1526.57 1632.16 1463.3 1638.28C1489.2 1690.32 1516.38 1743.12 1544.4 1796.31Z" fill="#4990CD"/>
<path d="M1819.53 1690.71C1825.9 1663.93 1832.27 1637.53 1839.07 1611.12C1800 1613.04 1761.36 1615.33 1723.14 1618.01C1726.96 1652.45 1731.21 1687.27 1735.88 1722.09C1763.91 1711.37 1791.51 1700.66 1819.53 1690.71Z" fill="#4990CD"/>
<path d="M2947.4 2543.41C2941.03 2570.19 2934.66 2596.59 2927.87 2622.99C2966.94 2621.08 3005.58 2618.78 3043.79 2616.11C3039.97 2581.67 3035.73 2546.85 3031.06 2512.03C3003.45 2522.74 2975.43 2533.08 2947.4 2543.41Z" fill="#4990CD"/>
<path d="M1944.85 1645.65C1954.2 1631.88 1963.11 1618.49 1972.46 1605.09C1951.22 1605.86 1930.42 1606.62 1909.18 1607.77C1904.51 1626.14 1899.84 1644.89 1895.17 1663.25C1911.73 1657.13 1928.29 1651.39 1944.85 1645.65Z" fill="#4990CD"/>
<path d="M2822.55 2588.46C2813.2 2602.23 2804.29 2615.63 2794.95 2629.02C2816.18 2628.25 2836.98 2627.49 2858.22 2626.34C2862.89 2607.97 2867.56 2589.23 2872.23 2570.86C2855.67 2576.6 2839.11 2582.72 2822.55 2588.46Z" fill="#4990CD"/>
<path d="M2710.46 2627.05C2708.33 2628.58 2705.78 2630.5 2703.66 2632.03C2707.06 2632.03 2710.03 2631.64 2713.43 2631.64C2715.13 2629.35 2716.83 2626.67 2718.52 2624.38C2715.98 2625.14 2713.43 2626.29 2710.46 2627.05Z" fill="#4990CD"/>
<path d="M2056.91 1606.94C2059.04 1605.41 2061.59 1603.5 2063.71 1601.97C2060.31 1601.97 2057.34 1602.35 2053.94 1602.35C2052.24 1604.65 2050.55 1607.33 2048.85 1609.62C2051.39 1608.47 2053.94 1607.71 2056.91 1606.94Z" fill="#4990CD"/>
<path d="M682.404 2476.81C778.796 2498.62 882.406 2518.52 991.537 2536.5C1063.73 2459.21 1141.86 2380.77 1225.09 2301.18C1116.8 2252.21 1013.62 2202.47 916.377 2152.34C820.41 2202.47 730.812 2252.97 648.433 2303.48C582.615 2343.66 523.166 2383.07 469.237 2421.33C534.631 2440.46 605.545 2459.21 682.404 2476.81Z" fill="#4990CD"/>
<path d="M4297.69 1812.85C4232.72 1793.34 4161.81 1774.97 4084.53 1757.37C3988.13 1735.56 3884.52 1715.66 3775.39 1697.68C3703.2 1774.97 3625.07 1853.41 3541.84 1932.99C3650.13 1981.97 3753.31 2031.71 3850.55 2081.84C3946.52 2031.71 4036.12 1981.2 4118.5 1930.7C4184.32 1890.52 4244.19 1851.11 4297.69 1812.85Z" fill="#4990CD"/>
<path d="M3341.86 2117.14C3393.66 2163.43 3444.19 2209.35 3493.45 2255.26C3594.51 2209.73 3691.33 2163.82 3782.63 2117.14C3690.91 2070.84 3594.51 2024.54 3493.45 1979.01C3444.62 2024.92 3394.09 2070.84 3341.86 2117.14Z" fill="#4990CD"/>
<path d="M1425.49 2117.14C1373.69 2070.84 1323.15 2024.92 1273.9 1979.01C1172.83 2024.54 1076.02 2070.46 984.721 2117.14C1076.44 2163.43 1172.83 2209.73 1273.9 2255.26C1322.73 2209.35 1373.26 2163.05 1425.49 2117.14Z" fill="#4990CD"/>
<path d="M3293.86 2159.58C3261.17 2188.28 3227.62 2216.97 3193.65 2245.67C3214.46 2283.17 3235.26 2320.28 3255.22 2357.4C3314.67 2332.91 3373.27 2308.04 3430.17 2283.17C3386.01 2242.23 3340.15 2200.9 3293.86 2159.58Z" fill="#4990CD"/>
<path d="M1473.49 2074.61C1506.19 2045.92 1539.73 2017.22 1573.7 1988.52C1552.9 1951.03 1532.09 1913.91 1512.13 1876.8C1452.68 1901.28 1394.08 1926.16 1337.18 1951.03C1381.34 1991.97 1426.78 2033.29 1473.49 2074.61Z" fill="#4990CD"/>
<path d="M3075.21 2343.89C3079.45 2371.06 3083.28 2397.84 3087.1 2424.63C3122.77 2410.85 3158.44 2396.7 3193.26 2382.54C3176.27 2351.55 3159.28 2320.17 3141.87 2288.8C3120.22 2307.16 3097.71 2325.53 3075.21 2343.89Z" fill="#4990CD"/>
<path d="M1691.72 1890.27C1687.47 1863.11 1683.65 1836.32 1679.83 1809.54C1644.16 1823.31 1608.49 1837.47 1573.67 1851.63C1590.65 1882.62 1607.64 1914 1625.05 1945.37C1647.13 1927 1669.64 1908.64 1691.72 1890.27Z" fill="#4990CD"/>
<path d="M3014.48 2392.95C3001.31 2403.66 2988.15 2413.99 2974.98 2424.7C2971.59 2440.39 2967.77 2456.08 2964.37 2471.38C2983.9 2464.11 3003.44 2456.84 3022.54 2449.57C3020 2430.83 3017.45 2412.08 3014.48 2392.95Z" fill="#4990CD"/>
<path d="M1752.5 1840.71C1765.66 1830 1778.82 1819.67 1791.99 1808.95C1795.38 1793.27 1799.21 1777.58 1802.6 1762.27C1783.07 1769.54 1763.54 1776.81 1744.43 1784.08C1747.4 1803.21 1749.95 1821.96 1752.5 1840.71Z" fill="#4990CD"/>
<path d="M2884.54 2495.55C2883.26 2497.85 2881.57 2500.14 2880.29 2502.44C2883.26 2501.29 2886.24 2500.14 2889.21 2499C2890.06 2496.32 2890.48 2493.26 2891.33 2490.58C2888.78 2492.49 2886.66 2494.02 2884.54 2495.55Z" fill="#4990CD"/>
<path d="M1882.81 1738.31C1884.09 1736.01 1885.78 1733.72 1887.06 1731.42C1884.09 1732.57 1881.11 1733.72 1878.14 1734.87C1877.29 1737.54 1876.87 1740.6 1876.02 1743.28C1878.57 1741.75 1880.69 1740.22 1882.81 1738.31Z" fill="#4990CD"/>
<path d="M3284.14 1821.76C3350.38 1848.92 3415.35 1876.86 3478.62 1904.79C3556.33 1830.94 3629.79 1757.86 3698.15 1685.93C3594.54 1670.62 3486.26 1656.85 3373.73 1645.37C3345.71 1703.53 3315.56 1762.45 3284.14 1821.76Z" fill="#4990CD"/>
<path d="M1483.22 2412.56C1416.97 2385.39 1352 2357.46 1288.73 2329.53C1211.03 2403.38 1137.56 2476.46 1069.2 2548.39C1172.81 2563.7 1281.09 2577.47 1393.62 2588.95C1421.64 2530.79 1451.79 2471.87 1483.22 2412.56Z" fill="#4990CD"/>
<path d="M3429.77 1950.54C3372.87 1925.67 3314.27 1900.8 3254.82 1876.31C3234.86 1913.43 3214.48 1950.54 3193.25 1988.04C3227.22 2016.74 3260.77 2045.43 3293.46 2074.13C3340.17 2033.19 3386.03 1991.87 3429.77 1950.54Z" fill="#4990CD"/>
<path d="M1573.7 2245.67C1539.73 2216.97 1506.19 2188.28 1473.49 2159.58C1426.78 2200.9 1381.34 2242.23 1337.18 2283.17C1394.08 2308.04 1452.68 2332.91 1512.13 2357.4C1532.09 2320.28 1552.9 2283.17 1573.7 2245.67Z" fill="#4990CD"/>
<path d="M1647.58 2117.14C1633.57 2093.03 1619.56 2068.93 1605.97 2044.82C1577.52 2068.93 1549.49 2093.03 1521.89 2117.14C1549.49 2141.24 1577.52 2165.35 1605.97 2189.45C1619.56 2165.35 1633.57 2141.24 1647.58 2117.14Z" fill="#4990CD"/>
<path d="M3119.78 2117.14C3133.79 2141.24 3147.81 2165.35 3161.39 2189.45C3189.84 2165.35 3217.87 2141.24 3245.47 2117.14C3217.87 2093.03 3189.84 2068.93 3161.39 2044.82C3147.81 2068.93 3133.79 2093.03 3119.78 2117.14Z" fill="#4990CD"/>
<path d="M3056.12 2223.85C3058.67 2239.53 3061.22 2255.22 3063.77 2270.91C3079.48 2257.9 3094.76 2245.27 3110.05 2232.26C3100.29 2215.43 3090.94 2198.59 3081.18 2181.76C3073.11 2195.91 3064.62 2209.69 3056.12 2223.85Z" fill="#4990CD"/>
<path d="M1711.28 2010.4C1708.73 1994.71 1706.18 1979.02 1703.63 1963.34C1687.92 1976.35 1672.64 1988.97 1657.35 2001.98C1667.12 2018.82 1676.46 2035.65 1686.22 2052.49C1694.29 2038.33 1702.79 2024.17 1711.28 2010.4Z" fill="#4990CD"/>
<path d="M2997.89 2318.34C2997.47 2321.02 2997.04 2323.31 2996.2 2325.99C2998.74 2324.08 3000.85 2322.17 3003.39 2320.25C3002.97 2317.19 3002.54 2314.51 3002.12 2311.45C3000.85 2314.13 2999.16 2316.04 2997.89 2318.34Z" fill="#4990CD"/>
<path d="M1769.41 1915.31C1769.83 1912.63 1770.26 1910.33 1771.1 1907.66C1768.57 1909.57 1766.45 1911.48 1763.91 1913.4C1764.34 1916.46 1764.76 1919.13 1765.18 1922.2C1766.45 1919.9 1767.72 1917.6 1769.41 1915.31Z" fill="#4990CD"/>
<path d="M1656.08 2611.39C1660.75 2570.45 1665.85 2529.13 1671.37 2487.42C1628.48 2470.97 1586.44 2454.13 1544.4 2437.3C1516.38 2490.48 1489.2 2543.28 1463.3 2595.7C1526.57 2601.44 1591.11 2606.8 1656.08 2611.39Z" fill="#4990CD"/>
<path d="M3111.31 1622.21C3106.64 1663.15 3101.54 1704.48 3096.02 1746.18C3138.91 1762.63 3180.95 1779.47 3222.99 1796.31C3251.02 1743.12 3278.19 1690.32 3304.09 1637.9C3240.82 1632.16 3176.28 1626.8 3111.31 1622.21Z" fill="#4990CD"/>
<path d="M3075.21 1890.27C3097.71 1908.64 3119.79 1927 3141.87 1945.37C3159.28 1914 3176.69 1882.62 3193.26 1851.63C3158.01 1837.47 3122.77 1823.31 3087.1 1809.54C3083.28 1836.32 3079.45 1863.11 3075.21 1890.27Z" fill="#4990CD"/>
<path d="M1691.72 2343.89C1669.21 2325.53 1647.13 2307.16 1625.05 2288.8C1607.64 2320.17 1590.23 2351.55 1573.67 2382.54C1608.91 2396.7 1644.16 2410.85 1679.83 2424.63C1683.65 2397.84 1687.9 2370.68 1691.72 2343.89Z" fill="#4990CD"/>
<path d="M1711.28 2223.85C1702.79 2209.69 1694.29 2195.91 1686.22 2181.76C1676.46 2198.59 1666.69 2215.43 1657.35 2232.26C1672.64 2245.27 1688.35 2257.9 1703.63 2270.91C1705.76 2255.22 1708.31 2239.53 1711.28 2223.85Z" fill="#4990CD"/>
<path d="M3063.77 1962.85C3061.22 1978.54 3058.67 1994.23 3056.12 2009.91C3064.62 2024.07 3073.11 2037.85 3081.18 2052C3090.94 2035.17 3100.71 2018.33 3110.05 2001.5C3095.19 1988.49 3079.48 1975.86 3063.77 1962.85Z" fill="#4990CD"/>
<path d="M3037.44 2117.08C3037.86 2119.76 3038.28 2122.06 3038.71 2124.73C3040.4 2122.06 3041.67 2119.76 3043.36 2117.08C3041.67 2114.4 3040.4 2112.11 3038.71 2109.43C3038.28 2111.73 3037.86 2114.4 3037.44 2117.08Z" fill="#4990CD"/>
<path d="M1729.93 2117.08C1729.51 2114.4 1729.09 2112.11 1728.66 2109.43C1726.97 2112.11 1725.7 2114.4 1724.01 2117.08C1725.7 2119.76 1726.97 2122.06 1728.66 2124.73C1729.09 2122.06 1729.51 2119.76 1729.93 2117.08Z" fill="#4990CD"/>
<path d="M1819.53 2543.27C1791.51 2532.94 1763.48 2522.61 1735.88 2512.28C1731.21 2547.1 1726.96 2581.92 1723.14 2616.36C1761.36 2618.65 1800 2620.95 1839.07 2623.24C1832.7 2596.46 1825.9 2570.06 1819.53 2543.27Z" fill="#4990CD"/>
<path d="M2947.4 1690.85C2975.43 1701.18 3003.45 1711.51 3031.06 1721.84C3035.73 1687.03 3039.97 1652.21 3043.79 1617.77C3005.58 1615.47 2966.94 1613.18 2927.87 1610.88C2934.66 1637.67 2941.03 1664.07 2947.4 1690.85Z" fill="#4990CD"/>
<path d="M2964.37 1762.76C2967.77 1778.45 2971.59 1793.75 2974.98 1809.44C2988.15 1820.15 3001.31 1830.48 3014.48 1841.2C3017.45 1822.45 3020 1803.32 3022.54 1784.57C3003.44 1777.3 2983.9 1770.03 2964.37 1762.76Z" fill="#4990CD"/>
<path d="M1803 2471.38C1799.61 2455.7 1795.78 2440.39 1792.39 2424.7C1779.22 2413.99 1766.06 2403.66 1752.9 2392.95C1749.92 2411.69 1747.38 2430.83 1744.83 2449.57C1763.94 2456.84 1783.47 2464.11 1803 2471.38Z" fill="#4990CD"/>
<path d="M2997.89 1915.31C2999.16 1917.6 3000.85 1919.9 3002.12 1922.2C3002.54 1919.13 3002.97 1916.46 3003.39 1913.4C3000.85 1911.48 2998.74 1909.57 2996.2 1907.66C2997.04 1910.33 2997.47 1913.01 2997.89 1915.31Z" fill="#4990CD"/>
<path d="M1769.41 2318.34C1768.14 2316.04 1766.45 2313.75 1765.18 2311.45C1764.76 2314.51 1764.34 2317.19 1763.91 2320.25C1766.45 2322.17 1768.57 2324.08 1771.1 2325.99C1770.26 2323.7 1769.83 2321.02 1769.41 2318.34Z" fill="#4990CD"/>
<path d="M2822.57 1645.65C2839.13 1651.39 2855.27 1657.13 2871.83 1663.25C2867.16 1644.5 2862.49 1626.14 2857.82 1607.77C2837.01 1607.01 2815.78 1605.86 2794.54 1605.09C2804.31 1618.49 2813.23 1631.88 2822.57 1645.65Z" fill="#4990CD"/>
<path d="M1944.83 2588.46C1928.27 2582.72 1912.13 2576.98 1895.57 2570.86C1900.24 2589.61 1904.91 2607.97 1909.58 2626.34C1930.39 2627.11 1951.62 2628.25 1972.85 2629.02C1963.09 2615.63 1953.75 2601.85 1944.83 2588.46Z" fill="#4990CD"/>
<path d="M1882.81 2495.55C1880.69 2494.02 1878.57 2492.11 1876.02 2490.58C1876.87 2493.26 1877.29 2496.32 1878.14 2499C1881.11 2500.14 1884.09 2501.29 1887.06 2502.44C1885.78 2500.14 1884.51 2497.85 1882.81 2495.55Z" fill="#4990CD"/>
<path d="M2884.54 1738.31C2886.66 1739.84 2888.78 1741.75 2891.33 1743.28C2890.48 1740.6 2890.06 1737.54 2889.21 1734.87C2886.24 1733.72 2883.26 1732.57 2880.29 1731.42C2881.57 1733.72 2882.84 1736.01 2884.54 1738.31Z" fill="#4990CD"/>
<path d="M2056.91 2627.05C2054.37 2626.29 2051.39 2625.14 2048.85 2624.38C2050.55 2626.67 2052.24 2629.35 2053.94 2631.64C2057.34 2631.64 2060.31 2632.03 2063.71 2632.03C2061.16 2630.5 2059.04 2628.58 2056.91 2627.05Z" fill="#4990CD"/>
<path d="M2710.46 1606.94C2713 1607.71 2715.98 1608.86 2718.52 1609.62C2716.83 1607.33 2715.13 1604.65 2713.43 1602.35C2710.03 1602.35 2707.06 1601.97 2703.66 1601.97C2706.21 1603.5 2708.33 1605.03 2710.46 1606.94Z" fill="#4990CD"/>
</svg>
