<svg width="193" height="61" viewBox="0 0 193 61" fill="none" xmlns="http://www.w3.org/2000/svg">
<g clip-path="url(#clip0_76_12)">
<path d="M51.5321 33.5625C51.0215 33.7312 50.4385 33.8998 49.7684 34.0602C49.1766 34.204 48.5442 34.334 47.8828 34.4528C48.3092 34.9478 48.7038 35.4344 49.0635 35.9073C49.1041 35.9626 49.1476 36.0179 49.1853 36.0704C49.5363 36.5405 49.8322 36.9718 50.0788 37.37C50.7082 37.3645 51.2623 37.3202 51.7351 37.2345C52.353 37.1211 53.1334 36.875 53.3364 36.3441C53.5395 35.8133 53.1072 35.1469 52.7098 34.6796C52.4052 34.3257 52.0107 33.9524 51.5321 33.5625Z" fill="#4990CD"/>
<path d="M24.5319 28.5028C25.0425 28.3341 25.6256 28.1655 26.2957 28.0051C26.8874 27.8613 27.5198 27.7313 28.1812 27.6124C27.7548 27.1175 27.3603 26.6309 27.0006 26.158C26.5944 25.6244 26.2608 25.1377 25.9853 24.6953C25.3558 24.7008 24.8017 24.7451 24.3289 24.8308C23.711 24.9442 22.9307 25.1903 22.7276 25.7211C22.5246 26.252 22.9568 26.9184 23.3542 27.3857C23.6588 27.7396 24.0504 28.1129 24.5319 28.5028Z" fill="#4990CD"/>
<path d="M28.0914 24.365C28.7006 24.4231 29.3388 24.506 30.0031 24.6111C29.7797 24.0056 29.5824 23.4194 29.4171 22.8581C29.2285 22.2221 29.0864 21.658 28.9878 21.152C28.3931 20.9502 27.8564 20.8119 27.3836 20.74C27.3372 20.7317 27.2879 20.7262 27.2386 20.7207C27.2241 20.7179 27.2095 20.7179 27.195 20.7152C27.1573 20.7096 27.1196 20.7069 27.079 20.7041C27.0645 20.7041 27.05 20.7013 27.0355 20.7013C26.9833 20.6958 26.934 20.693 26.8818 20.6903C26.8701 20.6903 26.8585 20.6903 26.8469 20.6903C26.8063 20.6875 26.7628 20.6875 26.7222 20.6875C26.6961 20.6875 26.67 20.6875 26.6439 20.6875C26.6381 20.6875 26.6323 20.6875 26.6265 20.6875C26.5888 20.6875 26.5511 20.6903 26.5104 20.693C26.5046 20.693 26.4988 20.693 26.493 20.693C26.4582 20.6958 26.4234 20.6986 26.3886 20.7013C26.3828 20.7013 26.3799 20.7013 26.3741 20.7041C26.3364 20.7096 26.3016 20.7124 26.2639 20.7179C26.2581 20.7179 26.2494 20.7207 26.2436 20.7207C26.2117 20.7262 26.1768 20.7317 26.1449 20.74C26.142 20.74 26.1362 20.7428 26.1333 20.7428C26.0985 20.7511 26.0637 20.7594 26.0318 20.7705C26.026 20.7732 26.0173 20.776 26.0115 20.776C25.9796 20.787 25.9506 20.7953 25.9216 20.8092C25.9187 20.8092 25.9158 20.8119 25.9129 20.8119C25.881 20.8258 25.8519 20.8396 25.8229 20.8534C25.8171 20.8562 25.8113 20.8589 25.8026 20.8645C25.7736 20.8783 25.7475 20.8949 25.7214 20.9115C25.7185 20.9115 25.7185 20.9142 25.7156 20.9142C25.6895 20.9336 25.6634 20.9529 25.6402 20.9723C25.6344 20.9778 25.6286 20.9834 25.6228 20.9861C25.5996 21.0082 25.5764 21.0304 25.5532 21.0553C25.3269 21.3124 25.2921 21.6884 25.3472 22.0673C25.3849 22.3272 25.4603 22.5926 25.5445 22.8221C25.7011 23.2535 25.939 23.7346 26.2494 24.2572C26.7918 24.2655 27.401 24.2987 28.0914 24.365Z" fill="#4990CD"/>
<path d="M50.5027 41.009C50.729 40.7518 50.7638 40.3758 50.7087 39.997C50.6709 39.7371 50.5955 39.4716 50.5114 39.2421C50.3548 38.8108 50.1169 38.3296 49.8065 37.8071C49.2669 37.8015 48.6578 37.7656 47.9703 37.6992C47.3611 37.6411 46.7229 37.5582 46.0586 37.4531C46.282 38.0587 46.4792 38.6449 46.6446 39.2062C46.8331 39.8421 46.9753 40.4062 47.0739 40.9122C47.6686 41.1141 48.2052 41.2523 48.6781 41.3242C49.3017 41.4182 50.1227 41.4431 50.5027 41.009Z" fill="#4990CD"/>
<path d="M26.5312 24.7031C26.7778 25.0819 27.0592 25.4829 27.3754 25.9032C27.7728 26.4285 28.2166 26.9705 28.704 27.5262C29.4582 27.4018 30.2501 27.294 31.0711 27.2027C30.7433 26.4783 30.4445 25.7704 30.1805 25.0847C29.435 24.963 28.7185 24.8663 28.0426 24.7999C27.503 24.7474 26.9983 24.717 26.5312 24.7031Z" fill="#4990CD"/>
<path d="M49.532 37.3622C49.2854 36.9834 49.0041 36.5824 48.6879 36.1622C48.2905 35.6368 47.8466 35.0948 47.3593 34.5391C46.6051 34.6635 45.8131 34.7713 44.9922 34.8626C45.32 35.587 45.6188 36.2949 45.8827 36.9806C46.6283 37.1023 47.3448 37.199 48.0207 37.2654C48.5602 37.3152 49.0621 37.3484 49.532 37.3622Z" fill="#4990CD"/>
<path d="M43.2726 39.6875C43.2668 40.329 43.2407 40.9428 43.1942 41.5263C43.1913 41.5677 43.1884 41.6092 43.1855 41.6507C43.1826 41.7005 43.1768 41.7475 43.1739 41.7972C43.1304 42.2811 43.0724 42.7788 42.9883 43.2683C43.4756 43.6526 43.9282 43.9567 44.3488 44.1807C44.8999 44.4738 45.6629 44.7614 46.1763 44.4793C46.6898 44.1973 46.8087 43.4203 46.8174 42.8203C46.8232 42.3641 46.7739 41.836 46.6695 41.2442C46.1647 41.0617 45.6048 40.8322 44.9812 40.5447C44.43 40.2875 43.8585 40.0027 43.2726 39.6875Z" fill="#4990CD"/>
<path d="M29.2466 19.2517C29.2408 19.708 29.2901 20.2361 29.3945 20.8278C29.8992 21.0103 30.4591 21.2398 31.0828 21.5274C31.634 21.7818 32.2054 22.0666 32.7914 22.3818C32.7972 21.7403 32.8233 21.1264 32.8697 20.543C32.9132 19.9762 32.9799 19.3817 33.0786 18.801C32.5912 18.4167 32.1387 18.1125 31.7181 17.8886C31.6978 17.8775 31.6746 17.8664 31.6514 17.8526C31.6456 17.8498 31.6398 17.8471 31.634 17.8443C31.6165 17.836 31.5962 17.825 31.5759 17.8167C31.5701 17.8139 31.5672 17.8111 31.5614 17.8111C31.5382 17.8001 31.515 17.789 31.4918 17.778C31.486 17.7752 31.4802 17.7724 31.4744 17.7697C31.4541 17.7614 31.4367 17.7531 31.4164 17.7448C31.4106 17.742 31.4048 17.7392 31.3961 17.7365C31.3729 17.7254 31.3468 17.7144 31.3236 17.7061C31.3207 17.7033 31.3149 17.7033 31.312 17.7005C31.2917 17.6922 31.2713 17.6839 31.2481 17.6756C31.2423 17.6729 31.2336 17.6701 31.2278 17.6674C31.2046 17.6591 31.1814 17.6508 31.1582 17.6397C31.1553 17.6397 31.1524 17.6369 31.1495 17.6369C31.1234 17.6286 31.1002 17.6203 31.0741 17.6093C31.0654 17.6065 31.0596 17.6038 31.0509 17.601C31.0306 17.5955 31.0103 17.5872 30.99 17.5816C30.9842 17.5789 30.9784 17.5789 30.9726 17.5761C30.9464 17.5678 30.9232 17.5623 30.8971 17.554C30.8913 17.5512 30.8855 17.5512 30.8768 17.5485C30.8565 17.5429 30.8362 17.5374 30.8188 17.5346C30.8101 17.5319 30.8043 17.5319 30.7956 17.5291C30.7695 17.5236 30.7463 17.518 30.7202 17.5125C30.7173 17.5125 30.7115 17.5097 30.7086 17.5097C30.6883 17.507 30.6651 17.5014 30.6448 17.4987C30.6361 17.4987 30.6303 17.4959 30.6216 17.4959C30.6012 17.4932 30.5809 17.4904 30.5577 17.4876C30.5519 17.4876 30.549 17.4876 30.5432 17.4849C30.52 17.4821 30.4939 17.4793 30.4707 17.4793C30.462 17.4793 30.4562 17.4793 30.4475 17.4793C30.4301 17.4793 30.4098 17.4766 30.3924 17.4766C30.3866 17.4766 30.3779 17.4766 30.3721 17.4766C30.3576 17.4766 30.346 17.4766 30.3315 17.4766C30.3228 17.4766 30.317 17.4766 30.3083 17.4766C30.288 17.4766 30.2676 17.4793 30.2473 17.4821C30.2415 17.4821 30.2328 17.4849 30.227 17.4849C30.2125 17.4876 30.2009 17.4876 30.1864 17.4904C30.1777 17.4904 30.169 17.4932 30.1632 17.4959C30.1516 17.4987 30.14 17.5014 30.1284 17.5014C30.1197 17.5042 30.111 17.5042 30.1023 17.507C30.0907 17.5097 30.0791 17.5125 30.0675 17.5153C30.0588 17.518 30.0501 17.5208 30.0443 17.5236C30.0327 17.5263 30.0211 17.5319 30.0095 17.5346C30.0008 17.5374 29.995 17.5402 29.9863 17.5429C29.9747 17.5485 29.9631 17.554 29.9515 17.5567C29.9457 17.5595 29.9399 17.5623 29.9341 17.565C29.9166 17.5733 29.8992 17.5816 29.8818 17.5927C29.3771 17.8775 29.2553 18.6517 29.2466 19.2517Z" fill="#4990CD"/>
<path d="M30.5259 24.6982C31.2801 24.8282 32.0633 24.983 32.8669 25.1655C32.8176 24.3775 32.7944 23.6171 32.7915 22.8871C32.1359 22.5277 31.4977 22.2042 30.8827 21.9221C30.3925 21.6954 29.9312 21.5018 29.4961 21.3359C29.5918 21.7728 29.7108 22.2401 29.8587 22.7378C30.0444 23.3627 30.2677 24.018 30.5259 24.6982Z" fill="#4990CD"/>
<path d="M46.2025 39.3234C46.0169 38.6985 45.7935 38.0432 45.5382 37.3657C44.784 37.2358 44.0008 37.0809 43.1973 36.8984C43.2466 37.6865 43.2698 38.4469 43.2727 39.1768C43.9283 39.5363 44.5665 39.8598 45.1814 40.1418C45.6717 40.3686 46.1329 40.5621 46.5681 40.728C46.4723 40.2884 46.3505 39.8211 46.2025 39.3234Z" fill="#4990CD"/>
<path d="M43.0469 35.0491C43.0933 35.5219 43.1339 35.9892 43.1658 36.4482C43.9171 36.6196 44.6481 36.7689 45.353 36.8961C45.1007 36.2546 44.8193 35.5965 44.5118 34.9219C44.0332 34.9661 43.5458 35.0104 43.0469 35.0491Z" fill="#4990CD"/>
<path d="M33.0171 27.0189C32.9707 26.5461 32.9301 26.0788 32.8982 25.6198C32.1469 25.4484 31.4158 25.2991 30.7109 25.1719C30.9633 25.8134 31.2447 26.4715 31.5522 27.1461C32.0308 27.1019 32.5182 27.0576 33.0171 27.0189Z" fill="#4990CD"/>
<path d="M33.5762 18.6239C33.9852 18.9584 34.429 19.3594 34.9106 19.8322C35.337 20.2497 35.7721 20.7059 36.2101 21.1926C36.448 20.5926 36.6917 20.023 36.9412 19.4921C37.1848 18.975 37.4604 18.4358 37.7621 17.9243C37.443 17.4045 37.1239 16.9704 36.8106 16.6247C36.799 16.6109 36.7845 16.5971 36.7729 16.5832C36.77 16.5777 36.7642 16.575 36.7613 16.5694C36.7526 16.5611 36.7439 16.5501 36.7352 16.5418C36.7294 16.5362 36.7236 16.5307 36.7207 16.5252C36.712 16.5169 36.7033 16.5086 36.6975 16.5003C36.6917 16.4948 36.6859 16.4892 36.6801 16.4837C36.6714 16.4754 36.6627 16.4671 36.6569 16.4588C36.6511 16.4533 36.6453 16.4478 36.6395 16.4422C36.6308 16.4339 36.6221 16.4256 36.6163 16.4173C36.6105 16.4118 36.6047 16.4063 36.5989 16.4008C36.5902 16.3925 36.5815 16.3842 36.5728 16.3759C36.5669 16.3703 36.5611 16.3648 36.5553 16.3593C36.5466 16.351 36.5379 16.3427 36.5292 16.3344C36.5234 16.3289 36.5176 16.3233 36.5118 16.3178C36.5031 16.3095 36.4944 16.3012 36.4857 16.2929C36.4799 16.2874 36.4741 16.2819 36.4683 16.2763C36.4596 16.268 36.448 16.2597 36.4393 16.2514C36.4335 16.2459 36.4277 16.2404 36.4219 16.2376C36.4103 16.2293 36.4016 16.2183 36.39 16.21C36.3842 16.2072 36.3813 16.2017 36.3755 16.1989C36.3436 16.174 36.3117 16.1464 36.2798 16.1242C36.2769 16.1215 36.2711 16.1187 36.2682 16.1132C36.2566 16.1049 36.245 16.0966 36.2334 16.0855C36.2275 16.08 36.2217 16.0772 36.2159 16.0717C36.2043 16.0634 36.1956 16.0579 36.184 16.0496C36.1782 16.0441 36.1695 16.0413 36.1637 16.0358C36.155 16.0302 36.1434 16.0219 36.1347 16.0164C36.1289 16.0109 36.1202 16.0081 36.1144 16.0026C36.1057 15.9971 36.0941 15.9888 36.0854 15.9832C36.0796 15.9777 36.0709 15.9749 36.0651 15.9694C36.0564 15.9639 36.0448 15.9583 36.0361 15.9528C36.0303 15.9473 36.0216 15.9445 36.0158 15.939C36.0071 15.9335 35.9955 15.9279 35.9868 15.9224C35.9781 15.9196 35.9723 15.9141 35.9636 15.9113C35.9549 15.9058 35.9433 15.9003 35.9346 15.8947C35.9288 15.892 35.9201 15.8865 35.9143 15.8837C35.9027 15.8782 35.8939 15.8726 35.8823 15.8699C35.8765 15.8671 35.8678 15.8643 35.862 15.8588C35.8504 15.8533 35.8388 15.8477 35.8272 15.845C35.8214 15.8422 35.8156 15.8394 35.8098 15.8367C35.7953 15.8312 35.7808 15.8229 35.7634 15.8173C35.7605 15.8173 35.7576 15.8146 35.7518 15.8146C35.7344 15.809 35.7199 15.8035 35.7025 15.798C35.6967 15.7952 35.688 15.7924 35.6822 15.7924C35.6706 15.7897 35.659 15.7841 35.6503 15.7814C35.6416 15.7786 35.6358 15.7759 35.6271 15.7759C35.6184 15.7731 35.6068 15.7703 35.5981 15.7676C35.5894 15.7648 35.5836 15.7648 35.5749 15.762C35.5662 15.7593 35.5546 15.7565 35.5458 15.7565C35.5371 15.7537 35.5284 15.7537 35.5226 15.751C35.5139 15.7482 35.5023 15.7482 35.4936 15.7454C35.4849 15.7454 35.4762 15.7427 35.4675 15.7427C35.4588 15.7427 35.4501 15.7399 35.4385 15.7399C35.4298 15.7399 35.4211 15.7371 35.4124 15.7371C35.4037 15.7371 35.3921 15.7371 35.3834 15.7344C35.3747 15.7344 35.366 15.7344 35.3573 15.7344C35.3515 15.7344 35.3428 15.7344 35.337 15.7344C35.3196 15.7344 35.3051 15.7344 35.2877 15.7371C35.2819 15.7371 35.2761 15.7371 35.2674 15.7371C35.2442 15.7399 35.2239 15.7427 35.2006 15.7454C34.6176 15.845 34.226 16.5335 34.0026 17.0948C33.8343 17.5206 33.6893 18.0321 33.5762 18.6239Z" fill="#4990CD"/>
<path d="M42.4857 43.4437C42.0767 43.1092 41.6329 42.7082 41.1513 42.2354C40.7249 41.8179 40.2898 41.3616 39.8517 40.875C39.6139 41.475 39.3702 42.0446 39.1207 42.5755C39.1062 42.6059 39.0917 42.6363 39.0772 42.6668C39.0482 42.7276 39.0192 42.7884 38.9873 42.852C38.9728 42.8824 38.9583 42.9128 38.9409 42.9433C38.7436 43.3442 38.526 43.7534 38.2969 44.1433C38.616 44.6631 38.9351 45.0972 39.2484 45.4429C39.6603 45.8963 40.2753 46.4189 40.8583 46.3194C41.2615 46.253 41.569 45.9046 41.7982 45.512C41.8098 45.4954 41.8185 45.4761 41.8301 45.4595C41.8504 45.4235 41.8707 45.3876 41.8881 45.3516C41.9519 45.2244 42.01 45.0945 42.0593 44.9728C42.2275 44.547 42.3697 44.0355 42.4857 43.4437Z" fill="#4990CD"/>
<path d="M42.8142 39.4372C42.1528 39.0694 41.474 38.6685 40.7807 38.2344C40.5428 38.9892 40.2933 39.7137 40.0352 40.4022C40.5225 40.9524 41.0069 41.464 41.4827 41.9313C41.8598 42.3018 42.2253 42.6363 42.5763 42.9322C42.643 42.4898 42.6981 42.0114 42.7387 41.4944C42.7852 40.8474 42.8113 40.1589 42.8142 39.4372Z" fill="#4990CD"/>
<path d="M35.2844 23.8385C35.5223 23.0836 35.7718 22.3592 36.03 21.6707C35.5426 21.1204 35.0582 20.6089 34.5824 20.1416C34.2053 19.7711 33.8398 19.4365 33.4888 19.1406C33.4221 19.583 33.367 20.0614 33.3264 20.5785C33.2771 21.2255 33.2509 21.914 33.248 22.6357C33.9123 23.0006 34.594 23.4043 35.2844 23.8385Z" fill="#4990CD"/>
<path d="M34.7594 25.6264C34.8842 25.1674 35.0147 24.7139 35.1482 24.2743C34.5042 23.8678 33.8718 23.489 33.2539 23.1406C33.2626 23.8236 33.2887 24.537 33.3351 25.2697C33.8051 25.3831 34.2779 25.502 34.7594 25.6264Z" fill="#4990CD"/>
<path d="M41.3067 36.4375C41.1819 36.8965 41.0514 37.35 40.918 37.7896C41.562 38.1961 42.1943 38.5749 42.8122 38.9233C42.8035 38.2403 42.7774 37.5269 42.731 36.7942C42.2611 36.6836 41.7882 36.5647 41.3067 36.4375Z" fill="#4990CD"/>
<path d="M34.4202 26.9316C34.4927 26.6358 34.5681 26.3455 34.6436 26.0551C34.2113 25.9418 33.7849 25.8339 33.3672 25.7344C33.3991 26.1464 33.4339 26.5667 33.4774 26.9897C33.7878 26.9676 34.1011 26.9482 34.4202 26.9316Z" fill="#4990CD"/>
<path d="M41.6433 35.1362C41.5708 35.4321 41.4953 35.7224 41.4199 36.0127C41.8521 36.1261 42.2786 36.2339 42.6963 36.3335C42.6644 35.9215 42.6296 35.5012 42.5861 35.0781C42.2757 35.1002 41.9624 35.1196 41.6433 35.1362Z" fill="#4990CD"/>
<path d="M38.2969 17.9215C38.4854 18.2395 38.6769 18.5962 38.8741 18.9888C38.9554 19.1492 39.0366 19.3179 39.1178 19.4921C39.3673 20.023 39.6139 20.5926 39.8488 21.1926C40.2869 20.7059 40.722 20.2497 41.1484 19.8322C41.63 19.3594 42.0738 18.9612 42.4828 18.6239C42.3697 18.0321 42.2275 17.5206 42.0564 17.0948C41.833 16.5335 41.4414 15.845 40.8583 15.7454C40.809 15.7371 40.7597 15.7344 40.7133 15.7344C40.3942 15.7344 40.0693 15.9003 39.7821 16.1242C39.7212 16.1713 39.6632 16.221 39.6052 16.2708C39.5761 16.2957 39.5471 16.3206 39.521 16.3482C39.4253 16.4395 39.3325 16.5335 39.2513 16.6247C38.9351 16.9704 38.616 17.4045 38.2969 17.9215Z" fill="#4990CD"/>
<path d="M35.2056 46.3222C35.6262 46.3941 36.0613 46.1424 36.4268 45.83C36.569 45.7056 36.7024 45.5728 36.8184 45.4456C37.1317 45.1 37.4508 44.6659 37.7699 44.1461C37.5988 43.8557 37.4247 43.535 37.2449 43.1838C37.1462 42.9903 37.0476 42.7884 36.949 42.5755C36.6995 42.0446 36.4529 41.475 36.218 40.875C35.7799 41.3616 35.3448 41.8179 34.9184 42.2354C34.4368 42.7082 33.993 43.1064 33.584 43.4437C33.6971 44.0355 33.8393 44.547 34.0104 44.9728C34.2309 45.5341 34.6196 46.2226 35.2056 46.3222Z" fill="#4990CD"/>
<path d="M38.0302 43.6918C38.2536 43.2991 38.474 42.8678 38.6974 42.395C38.9759 41.8032 39.2457 41.1645 39.5096 40.4871C39.0194 39.9258 38.5263 39.3257 38.0302 38.6953C37.5371 39.3285 37.041 39.9285 36.5508 40.4871C36.8119 41.1645 37.0845 41.8032 37.363 42.395C37.5864 42.8678 37.8098 43.2991 38.0302 43.6918Z" fill="#4990CD"/>
<path d="M36.5527 21.5797C37.043 22.141 37.5361 22.741 38.0322 23.3715C38.5253 22.7383 39.0214 22.1382 39.5116 21.5797C39.2505 20.9023 38.9778 20.2635 38.6994 19.6718C38.476 19.199 38.2555 18.7676 38.0322 18.375C37.8088 18.7676 37.5883 19.199 37.365 19.6718C37.0836 20.2635 36.8138 20.9023 36.5527 21.5797Z" fill="#4990CD"/>
<path d="M36.8942 24.8884C37.1785 24.4957 37.4599 24.1142 37.7441 23.7437C37.2858 23.1519 36.8246 22.5906 36.3691 22.0625C36.1313 22.7068 35.9021 23.387 35.6816 24.0921C36.0849 24.3464 36.4881 24.6146 36.8942 24.8884Z" fill="#4990CD"/>
<path d="M39.1683 37.1797C38.884 37.5723 38.6026 37.9539 38.3184 38.3244C38.7767 38.9161 39.2379 39.4774 39.6934 40.0056C39.9312 39.3613 40.1604 38.6811 40.3809 37.976C39.9805 37.7216 39.5744 37.4562 39.1683 37.1797Z" fill="#4990CD"/>
<path d="M39.9528 36.0625C39.7787 36.3169 39.6047 36.5657 39.4277 36.8146C39.7932 37.0607 40.1529 37.3012 40.5127 37.5335C40.6316 37.1353 40.7476 36.7316 40.8608 36.3169C40.5591 36.2339 40.2574 36.1482 39.9528 36.0625Z" fill="#4990CD"/>
<path d="M36.1091 26.0023C36.2832 25.7479 36.4572 25.499 36.6342 25.2502C36.2687 25.0041 35.909 24.7635 35.5493 24.5312C35.4303 24.9294 35.3143 25.3331 35.2012 25.7479C35.5029 25.8308 35.8045 25.9138 36.1091 26.0023Z" fill="#4990CD"/>
<path d="M40.5455 35.1811C40.4353 35.347 40.3251 35.5129 40.2148 35.6788C40.4701 35.7507 40.7225 35.8226 40.9749 35.8918C41.0387 35.6484 41.1025 35.4051 41.1634 35.1562C40.9575 35.1645 40.7515 35.1728 40.5455 35.1811Z" fill="#4990CD"/>
<path d="M35.5183 26.8825C35.6285 26.7166 35.7387 26.5507 35.849 26.3848C35.5937 26.3129 35.3413 26.241 35.0889 26.1719C35.0251 26.4152 34.9613 26.6585 34.9004 26.9074C35.1035 26.8963 35.3094 26.888 35.5183 26.8825Z" fill="#4990CD"/>
<path d="M42.9844 18.801C43.0714 19.3098 43.141 19.8877 43.1932 20.543C43.2367 21.1237 43.2629 21.7403 43.2716 22.3818C43.8575 22.0666 44.429 21.7818 44.9802 21.5274C45.6038 21.2398 46.1637 21.0103 46.6685 20.8278C46.7729 20.2361 46.8222 19.708 46.8164 19.2517C46.8077 18.6517 46.6888 17.8775 46.1753 17.5927C46.0274 17.5097 45.8591 17.4766 45.6793 17.4766C45.2383 17.4766 44.7394 17.6839 44.3478 17.8913C43.9272 18.1125 43.4717 18.4167 42.9844 18.801Z" fill="#4990CD"/>
<path d="M29.8905 44.4766C30.404 44.7586 31.1669 44.471 31.7181 44.178C32.1358 43.954 32.5912 43.6498 33.0786 43.2683C32.9915 42.7595 32.9219 42.1816 32.8697 41.5263C32.8262 40.9456 32.8001 40.329 32.7914 39.6875C32.2054 40.0027 31.634 40.2875 31.0828 40.5419C30.4591 40.8295 29.8992 41.059 29.3945 41.2415C29.2901 41.8332 29.2408 42.3613 29.2466 42.8175C29.2553 43.4203 29.3771 44.1945 29.8905 44.4766Z" fill="#4990CD"/>
<path d="M41.4807 20.1416C41.0079 20.6061 40.5234 21.1176 40.0332 21.6707C40.2914 22.3564 40.5409 23.0808 40.7787 23.8385C41.4691 23.4043 42.1508 23.0034 42.8122 22.6357C42.8093 21.914 42.7832 21.2255 42.7339 20.5785C42.6933 20.0614 42.6411 19.583 42.5714 19.1406C42.2233 19.4365 41.8607 19.7683 41.4807 20.1416Z" fill="#4990CD"/>
<path d="M34.5815 41.9234C35.0543 41.4589 35.5388 40.9474 36.029 40.3944C35.7708 39.7086 35.5214 38.9842 35.2835 38.2266C34.5931 38.6607 33.9114 39.0616 33.25 39.4294C33.2529 40.151 33.279 40.8395 33.3283 41.4866C33.3689 42.0036 33.4211 42.482 33.4908 42.9244C33.8389 42.6285 34.2044 42.294 34.5815 41.9234Z" fill="#4990CD"/>
<path d="M36.8932 37.1797C36.4871 37.4562 36.0839 37.7216 35.6836 37.9788C35.9041 38.6839 36.1332 39.3613 36.3711 40.0083C36.8265 39.4802 37.2849 38.9161 37.7461 38.3272C37.4618 37.9539 37.1775 37.5723 36.8932 37.1797Z" fill="#4990CD"/>
<path d="M39.1693 24.8833C39.5754 24.6068 39.9786 24.3414 40.3789 24.0842C40.1584 23.3791 39.9293 22.7017 39.6914 22.0547C39.236 22.5828 38.7776 23.1469 38.3164 23.7358C38.6036 24.1119 38.8879 24.4935 39.1693 24.8833Z" fill="#4990CD"/>
<path d="M38.7934 36.9243C38.541 36.7501 38.2858 36.5704 38.0305 36.3906C37.7752 36.5731 37.5229 36.7501 37.2676 36.9243C37.52 37.2754 37.7752 37.6183 38.0305 37.9529C38.2858 37.6183 38.541 37.2754 38.7934 36.9243Z" fill="#4990CD"/>
<path d="M38.0305 25.6794C38.2858 25.497 38.5381 25.32 38.7934 25.1458C38.541 24.7946 38.2858 24.4518 38.0305 24.1172C37.7752 24.4518 37.5229 24.7946 37.2676 25.1458C37.5229 25.32 37.7781 25.497 38.0305 25.6794Z" fill="#4990CD"/>
<path d="M37.1572 26.3152C37.3197 26.1935 37.485 26.0746 37.6475 25.9558C37.4328 25.8037 37.2211 25.6544 37.0093 25.5078C36.8613 25.7152 36.7163 25.9253 36.5684 26.1355C36.7656 26.1935 36.96 26.2544 37.1572 26.3152Z" fill="#4990CD"/>
<path d="M38.9043 35.75C38.7419 35.8717 38.5765 35.9906 38.4141 36.1095C38.6287 36.2615 38.8405 36.4109 39.0522 36.5574C39.2002 36.35 39.3452 36.1399 39.4932 35.9297C39.2988 35.8689 39.1016 35.8108 38.9043 35.75Z" fill="#4990CD"/>
<path d="M36.4359 26.853C36.5316 26.7811 36.6244 26.7092 36.7202 26.6373C36.5838 26.5958 36.4446 26.5543 36.3082 26.5156C36.2299 26.629 36.1516 26.7451 36.0762 26.8613C36.1951 26.8585 36.3169 26.8557 36.4359 26.853Z" fill="#4990CD"/>
<path d="M39.6261 35.2114C39.5304 35.2833 39.4375 35.3552 39.3418 35.4271C39.4781 35.4686 39.6174 35.51 39.7537 35.5488C39.832 35.4354 39.9104 35.3193 39.9858 35.2031C39.8698 35.2059 39.7479 35.2087 39.6261 35.2114Z" fill="#4990CD"/>
<path d="M47.0798 21.1576C46.9782 21.6636 46.839 22.2276 46.6504 22.8636C46.4822 23.4249 46.2878 24.0111 46.0645 24.6166C46.7287 24.5116 47.3669 24.4286 47.9761 24.3706C48.6636 24.3042 49.2728 24.271 49.8124 24.2627C50.1227 23.7401 50.3606 23.2618 50.5173 22.8277C50.7232 22.2608 50.8915 21.4921 50.5086 21.0608C50.2591 20.776 49.8182 20.6875 49.3714 20.6875C49.1365 20.6875 48.8986 20.7124 48.6839 20.7456C48.2082 20.8175 47.6715 20.9557 47.0798 21.1576Z" fill="#4990CD"/>
<path d="M28.9841 40.9122C29.0856 40.4062 29.2248 39.8421 29.4134 39.2062C29.5816 38.6449 29.776 38.0587 29.9994 37.4531C29.3351 37.5582 28.6969 37.6411 28.0877 37.6992C27.992 37.7075 27.8962 37.7186 27.8034 37.7241C27.229 37.7739 26.7156 37.7988 26.2515 37.8043C25.9411 38.3269 25.7032 38.8052 25.5466 39.2393C25.3406 39.8062 25.1723 40.5749 25.5553 41.0062C25.9382 41.4403 26.7591 41.4154 27.3799 41.3214C27.8556 41.2523 28.3894 41.1141 28.9841 40.9122Z" fill="#4990CD"/>
<path d="M30.8818 40.1418C31.4938 39.8598 32.132 39.5363 32.7905 39.1768C32.7934 38.4469 32.8195 37.6865 32.8659 36.8984C32.0595 37.0809 31.2763 37.2358 30.5249 37.3657C30.2697 38.0459 30.0463 38.6985 29.8607 39.3234C29.7127 39.8211 29.5909 40.2884 29.498 40.7253C29.9303 40.5621 30.3915 40.3658 30.8818 40.1418Z" fill="#4990CD"/>
<path d="M45.1814 21.9194C44.5694 22.2014 43.9312 22.5249 43.2727 22.8844C43.2698 23.6143 43.2437 24.3747 43.1973 25.1628C44.0037 24.9803 44.7869 24.8254 45.5382 24.6955C45.7935 24.0153 46.0169 23.3627 46.2025 22.7378C46.3505 22.2401 46.4723 21.7728 46.5652 21.3359C46.1329 21.4991 45.6688 21.6926 45.1814 21.9194Z" fill="#4990CD"/>
<path d="M34.7594 36.4375C34.2779 36.5647 33.8051 36.6836 33.3351 36.7914C33.2887 37.5269 33.2597 38.2376 33.2539 38.9205C33.8718 38.5721 34.5042 38.1933 35.1482 37.7868C35.0147 37.35 34.8842 36.8993 34.7594 36.4375Z" fill="#4990CD"/>
<path d="M41.3067 25.6264C41.7882 25.4992 42.2611 25.3803 42.731 25.2725C42.7774 24.537 42.8064 23.8264 42.8122 23.1406C42.1943 23.489 41.562 23.8678 40.918 24.2743C41.0514 24.7167 41.1819 25.1674 41.3067 25.6264Z" fill="#4990CD"/>
<path d="M36.1091 36.0625C35.8045 36.151 35.5029 36.2339 35.2012 36.3169C35.3143 36.7289 35.4303 37.1353 35.5493 37.5335C35.909 37.3012 36.2716 37.0635 36.6342 36.8146C36.4572 36.5657 36.2832 36.3141 36.1091 36.0625Z" fill="#4990CD"/>
<path d="M39.9528 26.0023C40.2574 25.9138 40.5591 25.8308 40.8608 25.7479C40.7476 25.3359 40.6316 24.9294 40.5127 24.5312C40.1529 24.7635 39.7903 25.0013 39.4277 25.2502C39.6018 25.499 39.7787 25.7479 39.9528 26.0023Z" fill="#4990CD"/>
<path d="M37.1572 35.75C36.96 35.8108 36.7627 35.8689 36.5684 35.927C36.7134 36.1399 36.8613 36.35 37.0093 36.5546C37.2211 36.4081 37.4357 36.2588 37.6475 36.1067C37.485 35.9906 37.3226 35.8717 37.1572 35.75Z" fill="#4990CD"/>
<path d="M38.9043 26.3124C39.1016 26.2516 39.2988 26.1935 39.4932 26.1355C39.3481 25.9226 39.2002 25.7124 39.0522 25.5078C38.8405 25.6544 38.6258 25.8037 38.4141 25.9558C38.5794 26.0719 38.7419 26.1908 38.9043 26.3124Z" fill="#4990CD"/>
<path d="M38.376 35.5844C38.2629 35.5485 38.1468 35.5125 38.0337 35.4766C37.9206 35.5125 37.8045 35.5485 37.6914 35.5844C37.8045 35.6674 37.9206 35.7503 38.0337 35.8333C38.1468 35.7531 38.26 35.6701 38.376 35.5844Z" fill="#4990CD"/>
<path d="M38.0318 26.5911C38.1449 26.5551 38.2609 26.5192 38.3741 26.4832C38.2609 26.4003 38.1449 26.3173 38.0318 26.2344C37.9186 26.3173 37.8026 26.4003 37.6895 26.4832C37.8026 26.5164 37.9186 26.5524 38.0318 26.5911Z" fill="#4990CD"/>
<path d="M37.256 26.8424C37.2734 26.837 37.2936 26.8289 37.3109 26.8236C37.2907 26.8182 37.2705 26.8101 37.2473 26.8047C37.23 26.8182 37.2127 26.8289 37.1953 26.8424C37.2155 26.8424 37.2358 26.8424 37.256 26.8424Z" fill="#4990CD"/>
<path d="M38.8069 35.2266C38.7895 35.232 38.7693 35.24 38.752 35.2454C38.7722 35.2508 38.7924 35.2589 38.8155 35.2643C38.8329 35.2508 38.8502 35.24 38.8676 35.2266C38.8444 35.2266 38.8271 35.2266 38.8069 35.2266Z" fill="#4990CD"/>
<path d="M23.3538 34.6745C23.3393 34.6939 23.3219 34.7132 23.3074 34.7298C23.2929 34.7464 23.2783 34.7658 23.2638 34.7824C22.8954 35.2386 22.5415 35.8442 22.7301 36.3363C22.9331 36.8672 23.7135 37.1133 24.3314 37.2267C24.8013 37.3124 25.3554 37.3566 25.9877 37.3622C26.2633 36.9198 26.5998 36.4331 27.003 35.8995C27.3598 35.4266 27.7544 34.94 28.1837 34.445C27.5223 34.3261 26.8928 34.1962 26.2981 34.0524C25.628 33.892 25.0421 33.7234 24.5344 33.5547C24.05 33.9473 23.6584 34.3206 23.3538 34.6745Z" fill="#4990CD"/>
<path d="M52.7069 27.3908C53.1043 26.9262 53.5365 26.2571 53.3335 25.7262C53.1304 25.1953 52.3501 24.9492 51.7322 24.8358C51.6713 24.8248 51.6103 24.8137 51.5465 24.8054C51.5262 24.8027 51.5059 24.7999 51.4856 24.7971C51.4421 24.7916 51.3986 24.7833 51.3551 24.7778C51.329 24.775 51.3029 24.7723 51.2797 24.7695C51.239 24.764 51.1984 24.7584 51.1549 24.7557C51.1259 24.7529 51.0998 24.7501 51.0708 24.7474C51.0302 24.7446 50.9896 24.7391 50.9461 24.7363C50.917 24.7335 50.8851 24.7308 50.8561 24.7308C50.8155 24.728 50.772 24.7252 50.7285 24.7225C50.6966 24.7197 50.6647 24.7197 50.6328 24.717C50.5892 24.7142 50.5486 24.7114 50.5022 24.7114C50.4703 24.7114 50.4355 24.7087 50.4036 24.7087C50.3601 24.7087 50.3166 24.7059 50.2702 24.7059C50.2353 24.7059 50.2034 24.7059 50.1686 24.7031C50.1367 24.7031 50.1048 24.7031 50.0729 24.7031C49.7973 25.1455 49.4608 25.6322 49.0576 26.1658C48.7008 26.6387 48.3063 27.1253 47.877 27.6203C48.5383 27.7392 49.1678 27.8691 49.7625 28.0129C50.4326 28.1733 51.0186 28.3419 51.5262 28.5106C52.0107 28.118 52.4052 27.7447 52.7069 27.3908Z" fill="#4990CD"/>
<path d="M44.9902 27.2027C45.8112 27.294 46.6031 27.4018 47.3573 27.5262C47.8418 26.9705 48.2856 26.4285 48.6859 25.9032C49.005 25.4829 49.2864 25.0847 49.5301 24.7031C49.5011 24.7031 49.4749 24.7059 49.4459 24.7059C49.4082 24.7059 49.3676 24.7087 49.3299 24.7087C49.2864 24.7114 49.2429 24.7114 49.1994 24.7142C49.1588 24.717 49.121 24.7169 49.0804 24.7197C49.034 24.7225 48.9876 24.7252 48.9412 24.728C48.9035 24.7308 48.8629 24.7335 48.8252 24.7363C48.7758 24.7391 48.7265 24.7418 48.6743 24.7474C48.6366 24.7501 48.5989 24.7529 48.5612 24.7557C48.5032 24.7612 48.448 24.764 48.39 24.7695C48.3581 24.7723 48.3262 24.775 48.2943 24.7778C48.2044 24.7861 48.1115 24.7944 48.0187 24.8027C47.3428 24.869 46.6263 24.963 45.8808 25.0875C45.6168 25.7704 45.318 26.4783 44.9902 27.2027Z" fill="#4990CD"/>
<path d="M26.5312 37.3622C26.9983 37.3484 27.503 37.3179 28.0426 37.2654C28.7185 37.199 29.435 37.105 30.1805 36.9806C30.4445 36.2949 30.7433 35.587 31.0711 34.8626C30.2501 34.7713 29.4582 34.6635 28.704 34.5391C28.2195 35.0948 27.7757 35.6368 27.3754 36.1622C27.0592 36.5824 26.7778 36.9806 26.5312 37.3622Z" fill="#4990CD"/>
<path d="M43.0469 27.024C43.5429 27.0627 44.0332 27.1042 44.5118 27.1539C44.8193 26.4793 45.1007 25.8184 45.353 25.1797C44.6481 25.3069 43.9171 25.4562 43.1658 25.6276C43.1339 26.0839 43.0962 26.5512 43.0469 27.024Z" fill="#4990CD"/>
<path d="M33.0171 35.044C32.5211 35.0053 32.0308 34.9638 31.5522 34.9141C31.2447 35.5887 30.9633 36.2496 30.7109 36.8883C31.4158 36.7611 32.1469 36.6118 32.8982 36.4404C32.9272 35.9814 32.9678 35.5168 33.0171 35.044Z" fill="#4990CD"/>
<path d="M34.4211 35.1362C34.1021 35.1196 33.7888 35.1002 33.4755 35.0781C33.432 35.5012 33.3971 35.9215 33.3652 36.3335C33.7859 36.2339 34.2123 36.1261 34.6416 36.0127C34.5662 35.7251 34.4937 35.4321 34.4211 35.1362Z" fill="#4990CD"/>
<path d="M41.6423 26.9316C41.9614 26.9482 42.2747 26.9676 42.588 26.9897C42.6315 26.5667 42.6663 26.1464 42.6983 25.7344C42.2776 25.8339 41.8512 25.9418 41.4219 26.0551C41.4944 26.3455 41.5698 26.6358 41.6423 26.9316Z" fill="#4990CD"/>
<path d="M35.5183 35.1811C35.3123 35.1728 35.1064 35.1645 34.9004 35.1562C34.9613 35.4023 35.0251 35.6484 35.0889 35.8918C35.3413 35.8226 35.5937 35.7535 35.849 35.6788C35.7387 35.5129 35.6285 35.347 35.5183 35.1811Z" fill="#4990CD"/>
<path d="M40.5455 26.8825C40.7515 26.8908 40.9575 26.8991 41.1634 26.9074C41.1025 26.6613 41.0387 26.4152 40.9749 26.1719C40.7225 26.241 40.4701 26.3101 40.2148 26.3848C40.3251 26.5479 40.4353 26.7138 40.5455 26.8825Z" fill="#4990CD"/>
<path d="M36.4349 35.2114C36.313 35.2087 36.1941 35.2059 36.0723 35.2031C36.1506 35.3193 36.226 35.4354 36.3043 35.5488C36.4407 35.5073 36.5799 35.4686 36.7163 35.4271C36.6234 35.3552 36.5306 35.2833 36.4349 35.2114Z" fill="#4990CD"/>
<path d="M39.6251 26.853C39.747 26.8557 39.8659 26.8585 39.9877 26.8613C39.9094 26.7451 39.834 26.629 39.7557 26.5156C39.6193 26.5571 39.4801 26.5958 39.3438 26.6373C39.4366 26.7092 39.5323 26.7811 39.6251 26.853Z" fill="#4990CD"/>
<path d="M38.8078 26.8424C38.828 26.8424 38.8483 26.8424 38.8656 26.8424C38.8483 26.8289 38.8309 26.8182 38.8136 26.8047C38.7934 26.8101 38.7731 26.8182 38.75 26.8236C38.7702 26.8289 38.7876 26.8343 38.8078 26.8424Z" fill="#4990CD"/>
<path d="M37.2551 35.2266C37.2348 35.2266 37.2146 35.2266 37.1973 35.2266C37.2146 35.24 37.232 35.2508 37.2493 35.2643C37.2695 35.2589 37.2898 35.2508 37.3129 35.2454C37.2927 35.24 37.2724 35.232 37.2551 35.2266Z" fill="#4990CD"/>
<path d="M53.1289 29.6742C52.717 29.4392 52.2123 29.218 51.6234 29.0078C51.2057 29.3341 50.7154 29.6797 50.1439 30.0502C49.6392 30.3765 49.0938 30.7056 48.5137 31.0318C49.0938 31.3581 49.6392 31.6872 50.1439 32.0134C50.7154 32.3839 51.2057 32.7323 51.6234 33.0559C52.2152 32.8457 52.7199 32.6245 53.1289 32.3895C53.6685 32.0826 54.3154 31.5959 54.3154 31.0291C54.3154 30.4678 53.6714 29.9839 53.1289 29.6742Z" fill="#4990CD"/>
<path d="M25.9195 32.0134C26.4242 31.6872 26.9696 31.3581 27.5497 31.0318C26.9696 30.7056 26.4242 30.3765 25.9195 30.0502C25.348 29.6797 24.8578 29.3313 24.44 29.0078C23.8483 29.218 23.3464 29.4392 22.9345 29.6742C22.3949 29.9811 21.748 30.4678 21.748 31.0346C21.748 31.6014 22.392 32.0853 22.9345 32.395C23.3464 32.63 23.8512 32.8512 24.44 33.0614C24.8578 32.7323 25.348 32.3839 25.9195 32.0134Z" fill="#4990CD"/>
<path d="M49.8847 32.3813C49.3219 32.0163 48.7098 31.6513 48.0542 31.2891C47.3899 31.6513 46.685 32.0107 45.9453 32.3647C46.5139 32.9398 47.0476 33.5066 47.5408 34.0652C48.2863 33.938 48.9912 33.7942 49.6526 33.6338C50.1777 33.5066 50.665 33.3739 51.1088 33.2329C50.7433 32.9564 50.3343 32.6716 49.8847 32.3813Z" fill="#4990CD"/>
<path d="M26.1812 29.6839C26.744 30.0489 27.356 30.4139 28.0116 30.7761C28.6759 30.4139 29.3808 30.0544 30.1205 29.7005C29.552 29.1254 29.0182 28.5585 28.5251 28C27.7796 28.1272 27.0747 28.271 26.4133 28.4313C25.8882 28.5585 25.4009 28.6913 24.957 28.8323C25.3225 29.1088 25.7316 29.3936 26.1812 29.6839Z" fill="#4990CD"/>
<path d="M31.8801 28.8997C31.6654 28.4711 31.4623 28.0453 31.2651 27.625C30.4993 27.708 29.7566 27.8075 29.0488 27.9181C29.5159 28.4379 30.0177 28.9661 30.5486 29.4997C30.9808 29.2979 31.4246 29.096 31.8801 28.8997Z" fill="#4990CD"/>
<path d="M44.1836 33.1703C44.3983 33.5989 44.6013 34.0247 44.7986 34.445C45.5644 34.3621 46.307 34.2625 47.0148 34.1519C46.5478 33.6321 46.0459 33.104 45.5151 32.5703C45.08 32.7722 44.6361 32.9712 44.1836 33.1703Z" fill="#4990CD"/>
<path d="M43.7619 33.3516C43.4776 33.4732 43.1875 33.5949 42.8945 33.7138C42.9322 34.0152 42.9671 34.3138 42.999 34.6097C43.4457 34.5765 43.8837 34.5378 44.316 34.4935C44.139 34.1175 43.9562 33.7359 43.7619 33.3516Z" fill="#4990CD"/>
<path d="M32.2982 28.719C32.5825 28.5974 32.8726 28.4757 33.1656 28.3568C33.1278 28.0554 33.093 27.7568 33.0611 27.4609C32.6144 27.4941 32.1764 27.5328 31.7441 27.5771C31.9211 27.9531 32.1067 28.3347 32.2982 28.719Z" fill="#4990CD"/>
<path d="M34.178 27.9501C34.2215 27.7566 34.265 27.5658 34.3115 27.375C34.0446 27.3888 33.7806 27.4054 33.5195 27.4248C33.5456 27.6736 33.5746 27.9252 33.6066 28.1769C33.798 28.0994 33.9866 28.022 34.178 27.9501Z" fill="#4990CD"/>
<path d="M41.8834 34.1174C41.8399 34.3109 41.7964 34.5017 41.75 34.6925C42.0169 34.6787 42.2809 34.6621 42.5419 34.6427C42.5158 34.3939 42.4868 34.1422 42.4549 33.8906C42.2664 33.968 42.0749 34.0427 41.8834 34.1174Z" fill="#4990CD"/>
<path d="M35.0328 27.629C35.0966 27.5295 35.1575 27.4327 35.2213 27.3359C35.0763 27.3415 34.9341 27.347 34.7891 27.3553C34.7572 27.488 34.7253 27.6235 34.6934 27.7562C34.8065 27.712 34.9196 27.6705 35.0328 27.629Z" fill="#4990CD"/>
<path d="M41.0304 34.4397C40.9665 34.5392 40.9056 34.636 40.8418 34.7328C40.9868 34.7273 41.129 34.7217 41.274 34.7134C41.3059 34.5807 41.3378 34.4452 41.3698 34.3125C41.2566 34.354 41.1435 34.3982 41.0304 34.4397Z" fill="#4990CD"/>
<path d="M40.265 34.722C40.2505 34.7328 40.2332 34.7462 40.2188 34.757C40.2419 34.757 40.2621 34.7543 40.2852 34.7543C40.2968 34.7382 40.3084 34.7193 40.3199 34.7031C40.3026 34.7085 40.2852 34.7166 40.265 34.722Z" fill="#4990CD"/>
<path d="M35.7991 27.3475C35.8135 27.3368 35.8309 27.3233 35.8453 27.3125C35.8222 27.3125 35.8019 27.3152 35.7788 27.3152C35.7673 27.3314 35.7557 27.3502 35.7441 27.3664C35.7615 27.3583 35.7788 27.3529 35.7991 27.3475Z" fill="#4990CD"/>
<path d="M26.4113 33.6338C27.0698 33.7914 27.7776 33.9352 28.5231 34.0652C29.0163 33.5066 29.55 32.9398 30.1186 32.3647C29.3789 32.0107 28.674 31.6513 28.0097 31.2891C27.3541 31.6513 26.742 32.0163 26.1792 32.3813C25.7296 32.6716 25.3235 32.9564 24.9551 33.2329C25.4018 33.3712 25.8863 33.5066 26.4113 33.6338Z" fill="#4990CD"/>
<path d="M51.1088 28.8323C50.665 28.6913 50.1806 28.5585 49.6526 28.4313C48.9941 28.2737 48.2863 28.13 47.5408 28C47.0476 28.5585 46.5139 29.1254 45.9453 29.7005C46.685 30.0544 47.3899 30.4139 48.0542 30.7761C48.7098 30.4139 49.3219 30.0489 49.8847 29.6839C50.3343 29.3936 50.7433 29.1088 51.1088 28.8323Z" fill="#4990CD"/>
<path d="M44.5781 31.0372C44.932 31.3718 45.2772 31.7036 45.6137 32.0354C46.3041 31.7064 46.9655 31.3746 47.5892 31.0372C46.9626 30.7027 46.3041 30.3681 45.6137 30.0391C45.2801 30.3709 44.9349 30.7027 44.5781 31.0372Z" fill="#4990CD"/>
<path d="M31.4876 31.0372C31.1337 30.7027 30.7885 30.3709 30.452 30.0391C29.7616 30.3681 29.1002 30.6999 28.4766 31.0372C29.1031 31.3718 29.7616 31.7064 30.452 32.0354C30.7856 31.7036 31.1308 31.3691 31.4876 31.0372Z" fill="#4990CD"/>
<path d="M44.251 31.3438C44.0276 31.5511 43.7985 31.7585 43.5664 31.9659C43.7085 32.2369 43.8507 32.5051 43.987 32.7733C44.3932 32.5963 44.7935 32.4166 45.1822 32.2369C44.8805 31.941 44.5672 31.6424 44.251 31.3438Z" fill="#4990CD"/>
<path d="M31.814 30.7264C32.0374 30.519 32.2665 30.3117 32.4986 30.1043C32.3564 29.8333 32.2143 29.5651 32.078 29.2969C31.6718 29.4738 31.2715 29.6536 30.8828 29.8333C31.1845 30.1292 31.4949 30.4278 31.814 30.7264Z" fill="#4990CD"/>
<path d="M42.7559 32.6716C42.7849 32.8679 42.811 33.0615 42.8371 33.255C43.0808 33.1555 43.3244 33.0532 43.5623 32.9509C43.4463 32.7269 43.3302 32.5002 43.2113 32.2734C43.0634 32.4062 42.9096 32.5389 42.7559 32.6716Z" fill="#4990CD"/>
<path d="M33.3064 29.3959C33.2774 29.1996 33.2513 29.0061 33.2252 28.8125C32.9815 28.912 32.7379 29.0143 32.5 29.1167C32.616 29.3406 32.7321 29.5674 32.851 29.7941C33.0018 29.6614 33.1556 29.5286 33.3064 29.3959Z" fill="#4990CD"/>
<path d="M42.3423 33.0234C42.2524 33.1009 42.1624 33.1755 42.0725 33.2529C42.0493 33.3663 42.0232 33.4797 42 33.5903C42.1334 33.5377 42.2669 33.4852 42.3974 33.4327C42.38 33.2972 42.3626 33.1617 42.3423 33.0234Z" fill="#4990CD"/>
<path d="M33.7211 29.0356C33.8111 28.9582 33.901 28.8835 33.9909 28.8061C34.0141 28.6927 34.0402 28.5794 34.0634 28.4688C33.93 28.5213 33.7966 28.5738 33.666 28.6264C33.6863 28.7646 33.7037 28.9001 33.7211 29.0356Z" fill="#4990CD"/>
<path d="M41.4548 33.7703C41.4461 33.7869 41.4345 33.8035 41.4258 33.8201C41.4461 33.8118 41.4664 33.8035 41.4867 33.7952C41.4925 33.7759 41.4954 33.7537 41.5012 33.7344C41.4838 33.7482 41.4693 33.7593 41.4548 33.7703Z" fill="#4990CD"/>
<path d="M34.6109 28.2998C34.6196 28.2832 34.6312 28.2666 34.6399 28.25C34.6196 28.2583 34.5993 28.2666 34.579 28.2749C34.5732 28.2942 34.5703 28.3164 34.5645 28.3357C34.5819 28.3247 34.5964 28.3136 34.6109 28.2998Z" fill="#4990CD"/>
<path d="M44.1836 28.8997C44.6361 29.096 45.08 29.2979 45.5122 29.4997C46.043 28.9661 46.5449 28.4379 47.0119 27.9181C46.3041 27.8075 45.5644 27.708 44.7957 27.625C44.6042 28.0453 44.3983 28.4711 44.1836 28.8997Z" fill="#4990CD"/>
<path d="M31.8791 33.1703C31.4266 32.974 30.9827 32.7722 30.5505 32.5703C30.0197 33.104 29.5178 33.6321 29.0508 34.1519C29.7586 34.2625 30.4983 34.3621 31.267 34.445C31.4585 34.0247 31.6644 33.5989 31.8791 33.1703Z" fill="#4990CD"/>
<path d="M45.1783 29.8333C44.7896 29.6536 44.3892 29.4738 43.9831 29.2969C43.8468 29.5651 43.7075 29.8333 43.5625 30.1043C43.7946 30.3117 44.0237 30.519 44.2471 30.7264C44.5662 30.4305 44.8795 30.1319 45.1783 29.8333Z" fill="#4990CD"/>
<path d="M32.4986 31.9659C32.2665 31.7585 32.0374 31.5511 31.814 31.3438C31.4949 31.6424 31.1845 31.941 30.8828 32.2369C31.2715 32.4166 31.6718 32.5963 32.078 32.7733C32.2143 32.5051 32.3564 32.2369 32.4986 31.9659Z" fill="#4990CD"/>
<path d="M33.0032 31.0304C32.9075 30.8562 32.8117 30.682 32.7189 30.5078C32.5245 30.682 32.3331 30.8562 32.1445 31.0304C32.3331 31.2046 32.5245 31.3788 32.7189 31.553C32.8117 31.3788 32.9075 31.2046 33.0032 31.0304Z" fill="#4990CD"/>
<path d="M43.0605 31.0304C43.1563 31.2046 43.252 31.3788 43.3448 31.553C43.5392 31.3788 43.7306 31.2046 43.9192 31.0304C43.7306 30.8562 43.5392 30.682 43.3448 30.5078C43.252 30.682 43.1563 30.8562 43.0605 31.0304Z" fill="#4990CD"/>
<path d="M42.625 31.8042C42.6424 31.9175 42.6598 32.0309 42.6772 32.1443C42.7845 32.0502 42.889 31.959 42.9934 31.865C42.9267 31.7433 42.8629 31.6217 42.7961 31.5C42.741 31.6023 42.683 31.7019 42.625 31.8042Z" fill="#4990CD"/>
<path d="M33.4387 30.262C33.4213 30.1486 33.4039 30.0352 33.3865 29.9219C33.2792 30.0159 33.1747 30.1071 33.0703 30.2011C33.137 30.3228 33.2009 30.4445 33.2676 30.5661C33.3227 30.4638 33.3807 30.3615 33.4387 30.262Z" fill="#4990CD"/>
<path d="M42.2284 32.4873C42.2255 32.5066 42.2226 32.5232 42.2168 32.5426C42.2342 32.5287 42.2487 32.5149 42.2661 32.5011C42.2632 32.479 42.2603 32.4596 42.2574 32.4375C42.2487 32.4569 42.2371 32.4707 42.2284 32.4873Z" fill="#4990CD"/>
<path d="M33.8365 29.5787C33.8394 29.5594 33.8423 29.5428 33.8481 29.5234C33.8307 29.5373 33.8162 29.5511 33.7988 29.5649C33.8017 29.587 33.8046 29.6064 33.8075 29.6285C33.8162 29.6119 33.8249 29.5953 33.8365 29.5787Z" fill="#4990CD"/>
<path d="M33.0611 34.6097C33.093 34.3138 33.1278 34.0152 33.1656 33.7138C32.8726 33.5949 32.5854 33.4732 32.2982 33.3516C32.1067 33.7359 31.9211 34.1175 31.7441 34.4963C32.1764 34.5378 32.6173 34.5765 33.0611 34.6097Z" fill="#4990CD"/>
<path d="M43.0029 27.4609C42.971 27.7568 42.9361 28.0554 42.8984 28.3568C43.1914 28.4757 43.4786 28.5974 43.7658 28.719C43.9572 28.3347 44.1429 27.9531 44.3199 27.5743C43.8876 27.5328 43.4467 27.4941 43.0029 27.4609Z" fill="#4990CD"/>
<path d="M42.7559 29.3959C42.9096 29.5286 43.0605 29.6614 43.2113 29.7941C43.3302 29.5674 43.4492 29.3406 43.5623 29.1167C43.3215 29.0143 43.0808 28.912 42.8371 28.8125C42.811 29.0061 42.7849 29.1996 42.7559 29.3959Z" fill="#4990CD"/>
<path d="M33.3064 32.6716C33.1527 32.5389 33.0018 32.4062 32.851 32.2734C32.7321 32.5002 32.6131 32.7269 32.5 32.9509C32.7408 33.0532 32.9815 33.1555 33.2252 33.255C33.2513 33.0615 33.2803 32.8652 33.3064 32.6716Z" fill="#4990CD"/>
<path d="M33.4387 31.8042C33.3807 31.7019 33.3227 31.6023 33.2676 31.5C33.2009 31.6217 33.1341 31.7433 33.0703 31.865C33.1747 31.959 33.2821 32.0502 33.3865 32.1443C33.401 32.0309 33.4184 31.9175 33.4387 31.8042Z" fill="#4990CD"/>
<path d="M42.6772 29.9219C42.6598 30.0352 42.6424 30.1486 42.625 30.262C42.683 30.3643 42.741 30.4638 42.7961 30.5661C42.8629 30.4445 42.9296 30.3228 42.9934 30.2011C42.8919 30.1071 42.7845 30.0159 42.6772 29.9219Z" fill="#4990CD"/>
<path d="M42.4961 31.0319C42.4989 31.0512 42.5018 31.0678 42.5046 31.0872C42.516 31.0678 42.5245 31.0512 42.5359 31.0319C42.5245 31.0125 42.516 30.9959 42.5046 30.9766C42.5018 30.9932 42.4989 31.0125 42.4961 31.0319Z" fill="#4990CD"/>
<path d="M33.5652 31.0319C33.5623 31.0125 33.5595 30.9959 33.5566 30.9766C33.5453 30.9959 33.5368 31.0125 33.5254 31.0319C33.5368 31.0512 33.5453 31.0678 33.5566 31.0872C33.5595 31.0678 33.5623 31.0512 33.5652 31.0319Z" fill="#4990CD"/>
<path d="M34.178 34.1146C33.9866 34.0399 33.7951 33.9653 33.6066 33.8906C33.5746 34.1422 33.5456 34.3939 33.5195 34.6427C33.7806 34.6593 34.0446 34.6759 34.3115 34.6925C34.2679 34.4989 34.2215 34.3081 34.178 34.1146Z" fill="#4990CD"/>
<path d="M41.8834 27.9529C42.0749 28.0276 42.2664 28.1022 42.4549 28.1769C42.4868 27.9252 42.5158 27.6736 42.5419 27.4248C42.2809 27.4082 42.0169 27.3916 41.75 27.375C41.7964 27.5686 41.8399 27.7593 41.8834 27.9529Z" fill="#4990CD"/>
<path d="M42 28.4766C42.0232 28.5899 42.0493 28.7005 42.0725 28.8139C42.1624 28.8913 42.2524 28.966 42.3423 29.0434C42.3626 28.9079 42.38 28.7697 42.3974 28.6342C42.2669 28.5816 42.1334 28.5291 42 28.4766Z" fill="#4990CD"/>
<path d="M34.0654 33.5903C34.0422 33.4769 34.0161 33.3663 33.9929 33.2529C33.9029 33.1755 33.813 33.1009 33.7231 33.0234C33.7028 33.1589 33.6854 33.2972 33.668 33.4327C33.7985 33.4852 33.9319 33.5377 34.0654 33.5903Z" fill="#4990CD"/>
<path d="M42.2284 29.5787C42.2371 29.5953 42.2487 29.6119 42.2574 29.6285C42.2603 29.6064 42.2632 29.587 42.2661 29.5649C42.2487 29.5511 42.2342 29.5373 42.2168 29.5234C42.2226 29.5428 42.2255 29.5621 42.2284 29.5787Z" fill="#4990CD"/>
<path d="M33.8365 32.4873C33.8278 32.4707 33.8162 32.4541 33.8075 32.4375C33.8046 32.4596 33.8017 32.479 33.7988 32.5011C33.8162 32.5149 33.8307 32.5287 33.8481 32.5426C33.8423 32.526 33.8394 32.5066 33.8365 32.4873Z" fill="#4990CD"/>
<path d="M41.0313 27.629C41.1444 27.6705 41.2547 27.712 41.3678 27.7562C41.3359 27.6207 41.304 27.488 41.2721 27.3553C41.1299 27.3498 40.9849 27.3415 40.8398 27.3359C40.9066 27.4327 40.9675 27.5295 41.0313 27.629Z" fill="#4990CD"/>
<path d="M35.0338 34.4397C34.9206 34.3982 34.8104 34.3567 34.6973 34.3125C34.7292 34.448 34.7611 34.5807 34.793 34.7134C34.9351 34.719 35.0802 34.7273 35.2252 34.7328C35.1585 34.636 35.0947 34.5365 35.0338 34.4397Z" fill="#4990CD"/>
<path d="M34.6109 33.7703C34.5964 33.7593 34.5819 33.7454 34.5645 33.7344C34.5703 33.7537 34.5732 33.7759 34.579 33.7952C34.5993 33.8035 34.6196 33.8118 34.6399 33.8201C34.6312 33.8035 34.6225 33.7869 34.6109 33.7703Z" fill="#4990CD"/>
<path d="M41.4548 28.2998C41.4693 28.3108 41.4838 28.3247 41.5012 28.3357C41.4954 28.3164 41.4925 28.2942 41.4867 28.2749C41.4664 28.2666 41.4461 28.2583 41.4258 28.25C41.4345 28.2666 41.4432 28.2832 41.4548 28.2998Z" fill="#4990CD"/>
<path d="M35.7991 34.722C35.7817 34.7166 35.7615 34.7085 35.7441 34.7031C35.7557 34.7193 35.7673 34.7382 35.7788 34.7543C35.8019 34.7543 35.8222 34.757 35.8453 34.757C35.828 34.7462 35.8135 34.7328 35.7991 34.722Z" fill="#4990CD"/>
<path d="M40.265 27.3475C40.2823 27.3529 40.3026 27.361 40.3199 27.3664C40.3084 27.3502 40.2968 27.3314 40.2852 27.3152C40.2621 27.3152 40.2419 27.3125 40.2188 27.3125C40.2361 27.3233 40.2505 27.3341 40.265 27.3475Z" fill="#4990CD"/>
<path d="M70.5275 33.9756C69.9125 33.9756 69.3092 33.8761 68.7203 33.6742C68.1285 33.4724 67.5919 33.1627 67.1074 32.7452L68.1546 31.5479C68.523 31.8327 68.9001 32.0594 69.2889 32.2281C69.6776 32.3968 70.1011 32.4797 70.5623 32.4797C70.9307 32.4797 71.2179 32.4161 71.421 32.2889C71.624 32.1617 71.7256 31.982 71.7256 31.7553V31.7331C71.7256 31.6225 71.7053 31.5258 71.6618 31.4428C71.6182 31.3599 71.5399 31.2797 71.4181 31.2078C71.2991 31.1359 71.1338 31.0612 70.922 30.9893C70.7103 30.9175 70.4347 30.84 70.0953 30.7598C69.6863 30.6658 69.3179 30.558 68.9872 30.4419C68.6565 30.3257 68.3751 30.1792 68.143 30.0078C67.911 29.8363 67.734 29.6206 67.6064 29.3663C67.4787 29.1091 67.4149 28.7911 67.4149 28.4123V28.3902C67.4149 28.039 67.4845 27.7211 67.6209 27.439C67.7572 27.157 67.9516 26.9137 68.1981 26.709C68.4476 26.5044 68.7435 26.3468 69.0858 26.2362C69.431 26.1256 69.811 26.0703 70.2229 26.0703C70.8147 26.0703 71.3572 26.1533 71.8532 26.3219C72.3493 26.4906 72.8047 26.7312 73.2195 27.0464L72.297 28.3211C71.9373 28.086 71.5834 27.9008 71.2382 27.7653C70.893 27.6298 70.5478 27.5634 70.2026 27.5634C69.8574 27.5634 69.5993 27.627 69.4252 27.7542C69.2512 27.8814 69.167 28.0418 69.167 28.2326V28.2547C69.167 28.3791 69.1931 28.487 69.2424 28.5782C69.2918 28.6695 69.3817 28.7524 69.5151 28.8243C69.6457 28.8962 69.8255 28.9681 70.0518 29.0317C70.2781 29.098 70.5652 29.1755 70.9133 29.2612C71.3224 29.3635 71.685 29.4796 72.0041 29.6068C72.3232 29.734 72.5929 29.8889 72.8134 30.0686C73.0339 30.2483 73.1992 30.4585 73.3094 30.699C73.4197 30.9396 73.4777 31.2299 73.4777 31.5672V31.5894C73.4777 31.9709 73.4052 32.3083 73.2601 32.6041C73.1151 32.9 72.912 33.1489 72.6538 33.3507C72.3957 33.5526 72.0853 33.7046 71.7256 33.8125C71.363 33.9203 70.9656 33.9756 70.5275 33.9756Z" fill="#338FCE"/>
<path d="M77.7852 26.1797H81.0805C81.565 26.1797 81.9972 26.2433 82.3772 26.3705C82.7572 26.4977 83.0792 26.6802 83.3461 26.9152C83.6101 27.1502 83.8131 27.4295 83.9553 27.7558C84.0974 28.082 84.167 28.4415 84.167 28.8369V28.859C84.167 29.307 84.0829 29.6968 83.9147 30.0342C83.7464 30.3715 83.5143 30.6535 83.2185 30.8803C82.9226 31.107 82.5774 31.2785 82.1828 31.3918C81.7883 31.5052 81.3619 31.5633 80.9094 31.5633H79.5605V33.8693H77.7852V26.1797ZM80.9645 30.0563C81.4112 30.0563 81.7564 29.9457 82.0001 29.7217C82.2467 29.4978 82.3685 29.2212 82.3685 28.8922V28.8701C82.3685 28.4885 82.2409 28.2009 81.9827 28.0019C81.7245 27.8055 81.3735 27.706 80.9297 27.706H79.5576V30.0563H80.9645Z" fill="#4990CD"/>
<path d="M100.468 26.9705H95.5486V29.5945H99.9492V30.3853H95.5486V33.0757H100.526V33.8665H94.6406V26.1797H100.468V26.9705Z" fill="#010101"/>
<path d="M111.057 26.1797H111.945V33.8665H111.22L106.013 27.565V33.8665H105.125V26.1797H105.978L111.057 32.3402V26.1797Z" fill="#010101"/>
<path d="M122.815 26.9705H117.895V29.5945H122.296V30.3853H117.895V33.0757H122.87V33.8665H116.984V26.1797H122.812V26.9705H122.815Z" fill="#010101"/>
<path d="M133.023 33.8665L130.685 30.8803H128.382V33.8665H127.471V26.1797H130.937C132.713 26.1797 133.853 27.0922 133.853 28.4747C133.853 29.7604 132.93 30.507 131.665 30.7254L134.143 33.8665H133.023ZM130.868 26.9816H128.379V30.1005H130.856C132.066 30.1005 132.93 29.5088 132.93 28.5079C132.93 27.5512 132.17 26.9816 130.868 26.9816Z" fill="#010101"/>
<path d="M142.307 33.9992C139.772 33.9992 138.205 32.2434 138.205 30.0341C138.205 27.9161 139.83 26.0469 142.249 26.0469C143.609 26.0469 144.448 26.4202 145.254 27.0672L144.665 27.7253C144.044 27.2082 143.351 26.846 142.211 26.846C140.424 26.846 139.148 28.2838 139.148 30.0092C139.148 31.8535 140.381 33.2167 142.339 33.2167C143.261 33.2167 144.114 32.8766 144.665 32.448V30.5373H142.211V29.7576H145.541V32.8213C144.796 33.46 143.667 33.9992 142.307 33.9992Z" fill="#010101"/>
<path d="M153.457 33.8665H152.535V30.825L149.182 26.1797H150.287L153.005 30.0231L155.746 26.1797H156.805L153.452 30.8139V33.8665H153.457Z" fill="#010101"/>
</g>
<defs>
<clipPath id="clip0_76_12">
<rect width="193" height="61" fill="white"/>
</clipPath>
</defs>
</svg>
