<svg width="128" height="160" viewBox="0 0 128 160" fill="none" xmlns="http://www.w3.org/2000/svg">
<path d="M110.13 19.2578H17.87C12.99 19.2578 9 23.2378 9 28.1178V98.9478C9 104.348 13.39 108.738 18.79 108.738H109.21C114.61 108.738 119 104.348 119 98.9478V28.1278C119 23.2378 115.02 19.2578 110.13 19.2578ZM116 98.9378C116 102.678 112.95 105.728 109.21 105.728H100.78L72.2 77.2278C76.24 60.9978 59.99 46.9878 44.44 53.5578C43.98 53.7478 43.65 54.1578 43.55 54.6578C43.33 55.7778 43.07 55.1178 57.24 69.2478C56.47 72.1778 52.27 76.3578 49.32 77.1378C35.15 63.0078 35.81 63.2678 34.69 63.4878C34.2 63.5878 33.79 63.9178 33.6 64.3778C27 79.8978 41.12 96.1078 57.34 92.0678L71.04 105.738H18.79C15.05 105.738 12 102.688 12 98.9478V41.9778H116V98.9478V98.9378ZM60.32 68.6578C60.29 67.8078 60.6 68.3778 47.76 55.5678C60.91 51.9278 72.96 64.1878 69.07 77.2678C68.9 77.8578 69.1 78.4778 69.56 78.8578L96.52 105.728H93.13L69.98 82.6378C67.95 80.6078 64.72 80.6778 62.77 82.6378C60.77 84.6078 60.73 87.8278 62.75 89.8778L78.65 105.738H75.27L58.83 89.3378C58.44 88.9478 57.87 88.8078 57.35 88.9578C44.19 92.8478 31.97 80.7278 35.6 67.7078C48.43 80.4978 47.89 80.2078 48.73 80.2378C53.18 80.3378 60.48 72.8978 60.32 68.6678V68.6578ZM88.88 105.728H82.9L64.88 87.7578C64.07 86.9378 64.01 85.6178 64.88 84.7578C65.68 83.9478 67.05 83.9478 67.86 84.7578L88.88 105.728ZM116 28.1278V38.9778H53.57L61.5 22.2578H110.12C113.36 22.2578 116 24.8878 116 28.1278ZM50.25 38.9778H12V28.1278C12 24.8878 14.64 22.2578 17.88 22.2578H58.18L50.25 38.9778Z" fill="#3B7AB0"/>
<path d="M67.2506 32.1172H108.521C110.501 32.1172 110.501 29.1172 108.521 29.1172H67.2506C65.2706 29.1172 65.2706 32.1172 67.2506 32.1172Z" fill="#3B7AB0"/>
</svg>
