<svg width="126" height="148" viewBox="0 0 126 148" fill="none" xmlns="http://www.w3.org/2000/svg">
<path d="M21.1687 58.3006H31.0812V97.8467C31.0812 101.145 33.7657 103.839 37.0569 103.839H89.2731C92.5643 103.839 95.2488 101.145 95.2488 97.8467V58.3006H105.161C105.455 58.3074 105.743 58.2239 105.988 58.0614C106.233 57.8981 106.423 57.663 106.531 57.3881C106.638 57.1132 106.659 56.8118 106.59 56.5248C106.521 56.2389 106.366 55.9809 106.147 55.7857C106.146 55.785 106.145 55.7842 106.144 55.7835L64.1488 17.08C63.9877 16.9315 63.7948 16.8217 63.5848 16.7593C63.3761 16.6973 63.156 16.6837 62.9413 16.7195C62.6582 16.7609 62.394 16.886 62.1825 17.0789L62.1825 17.0788L62.1813 17.0799L20.1833 55.7857C19.9636 55.9809 19.8089 56.2389 19.7401 56.5248C19.6709 56.8118 19.6916 57.1132 19.7993 57.3881C19.907 57.663 20.0965 57.8981 20.3422 58.0614C20.5868 58.2239 20.8753 58.3074 21.1687 58.3006ZM71.983 53.1509L71.983 53.1508L71.9743 53.1526C71.728 53.2019 71.4991 53.3151 71.3103 53.4809C71.1214 53.6466 70.9793 53.8589 70.898 54.0967L70.8972 54.0992C70.1658 56.2997 68.4771 58.2854 66.2813 60.2088C64.452 61.8112 62.297 63.3487 60.0937 64.9207C59.6532 65.235 59.2108 65.5507 58.7686 65.8685C56.1229 67.7703 53.5163 69.7639 51.5131 72.1449C49.5042 74.5326 48.1082 77.3899 48.1082 80.7698C48.1082 84.8259 49.2963 88.163 51.6512 90.5366C50.8772 91.1934 50.1344 91.8862 49.4581 92.67C47.62 94.8001 46.3044 97.487 45.9369 100.962H37.0569C35.3172 100.962 33.9515 99.5937 33.9515 97.8467V56.8621C33.9514 56.4809 33.8004 56.1151 33.5314 55.8453C33.2623 55.5754 32.8972 55.4237 32.5164 55.4236H24.8773L63.165 20.1278L101.453 55.4236H93.8136C93.4327 55.4237 93.0676 55.5754 92.7986 55.8453C92.5295 56.1151 92.3785 56.4809 92.3785 56.8621V97.8467C92.3785 99.5937 91.0128 100.962 89.2731 100.962H48.8147C49.1524 98.2203 50.1559 96.2472 51.6151 94.5562C52.294 93.7694 53.0953 93.0495 53.9657 92.3429C56.6662 93.9667 60.1591 94.7313 64.3001 94.7313C69.2041 94.7313 73.3352 92.2354 76.1382 88.5653C78.9386 84.8987 80.492 80.0539 80.492 75.0775C80.492 67.8672 78.4311 59.0596 73.282 53.5986C73.1205 53.4215 72.9173 53.2877 72.6909 53.2094C72.4636 53.1308 72.2201 53.1107 71.983 53.1509ZM67.3334 63.0672C69.3549 61.3473 71.1507 59.4654 72.3925 57.2728C75.8678 62.0261 77.6217 69.1078 77.6217 75.0775C77.6217 79.4519 76.2226 83.71 73.8522 86.8137C71.4841 89.9143 68.2265 91.8544 64.3001 91.8544C61.1139 91.8544 58.5184 91.3708 56.5164 90.4668C56.6222 90.3906 56.7278 90.3141 56.8336 90.2376C57.2316 89.9493 57.6317 89.6597 58.0474 89.379L57.8795 89.1304L58.0474 89.379L58.0911 89.3494C63.0994 85.9675 69.0228 81.9676 71.3644 73.1659C71.4291 72.9442 71.4396 72.7102 71.3949 72.4835C71.35 72.2555 71.2506 72.0417 71.1052 71.8604C70.9598 71.6792 70.7726 71.536 70.5598 71.4431C70.3472 71.3504 70.1155 71.3106 69.8842 71.3272C69.582 71.3466 69.2936 71.4613 69.0605 71.6549C68.8273 71.8484 68.6612 72.1108 68.5859 72.4045C66.5079 80.2181 61.5434 83.5704 56.5447 86.9457L56.4701 86.9962L56.3323 87.0892C55.5252 87.6341 54.7154 88.1809 53.9274 88.7456C52.0088 86.9719 50.9785 84.4337 50.9785 80.7698C50.9785 78.1842 51.9942 76.0297 53.7104 73.9898C55.4314 71.9442 57.8609 70.0789 60.4668 68.2057C60.8823 67.907 61.3017 67.6081 61.7228 67.3081C63.6328 65.9471 65.5755 64.5628 67.3334 63.0672Z" fill="#3B7AB0" stroke="#3B7AB0" stroke-width="0.6"/>
</svg>
