<svg width="100" height="125" viewBox="0 0 100 125" fill="none" xmlns="http://www.w3.org/2000/svg">
<path d="M99.2996 70.9984C99.0996 70.6984 94.6996 64.0984 83.2996 66.6984C76.3996 68.1984 70.9996 69.9984 67.9996 71.0984C67.6996 68.3984 65.3996 66.2984 62.5996 66.0984L20.7996 57.8984V55.4984C20.7996 54.5984 20.0996 53.8984 19.1996 53.8984H2.19961C1.29961 53.8984 0.599609 54.5984 0.599609 55.4984V88.1984C0.599609 89.0984 1.29961 89.7984 2.19961 89.7984H19.1996C20.0996 89.7984 20.7996 89.0984 20.7996 88.1984V84.7984C27.1996 87.2984 45.3996 94.2984 54.8996 94.2984C66.3996 94.2984 97.4996 74.0984 98.7996 73.2984C99.5996 72.6984 99.7996 71.6984 99.2996 70.9984ZM3.79961 86.5984V57.0984H17.5996V59.1984V82.2984V86.4984H3.79961V86.5984ZM54.8996 90.9984C45.3996 90.9984 25.4996 83.1984 20.7996 81.2984V61.2984L62.2996 69.3984C63.6996 69.3984 64.7996 70.4984 64.7996 71.8984C64.7996 73.2984 63.6996 74.3984 62.2996 74.3984H38.9996C38.0996 74.3984 37.3996 75.0984 37.3996 75.9984C37.3996 76.8984 38.0996 77.5984 38.9996 77.5984H62.2996C64.2996 77.5984 66.0996 76.4984 67.0996 74.8984C68.8996 74.1984 75.2996 71.7984 83.9996 69.8984C90.1996 68.4984 93.7996 70.2984 95.3996 71.5984C88.7996 75.6984 64.0996 90.9984 54.8996 90.9984Z" fill="#3B7AB0"/>
<path d="M72.2991 24.1969C72.2991 24.9969 72.999 25.5969 73.699 25.5969C74.499 25.5969 75.099 24.8969 75.099 24.1969C75.099 21.9969 73.599 17.9969 68.399 17.2969V15.6969C68.399 14.8969 67.799 14.2969 66.999 14.2969C66.199 14.2969 65.599 14.8969 65.599 15.6969V17.2969C63.599 17.4969 61.999 18.1969 60.899 19.3969C59.099 21.1969 58.999 23.5969 58.999 24.0969C58.999 24.5969 58.899 27.0969 60.699 29.0969C61.899 30.3969 63.599 31.1969 65.699 31.3969V39.9969C62.199 39.3969 61.899 36.5969 61.899 35.9969C61.899 35.1969 61.199 34.5969 60.499 34.5969C59.699 34.5969 59.099 35.2969 59.099 35.9969C59.099 38.1969 60.5991 42.1969 65.799 42.8969V44.4969C65.799 45.2969 66.399 45.8969 67.199 45.8969C67.999 45.8969 68.599 45.2969 68.599 44.4969V42.8969C70.599 42.6969 72.1991 41.9969 73.2991 40.7969C75.0991 38.9969 75.199 36.5969 75.199 36.0969C75.199 35.5969 75.299 33.0969 73.499 31.0969C72.299 29.7969 70.599 28.9969 68.499 28.7969V20.1969C71.999 20.8969 72.1991 23.5969 72.2991 24.1969ZM65.599 28.5969C64.399 28.3969 63.399 27.9969 62.799 27.2969C61.699 26.0969 61.899 24.3969 61.899 24.3969C61.899 24.2969 61.899 24.2969 61.899 24.1969C61.899 24.1969 61.899 22.5969 62.999 21.3969C63.599 20.7969 64.499 20.3969 65.699 20.1969V28.5969H65.599ZM71.2991 32.9969C72.3991 34.1969 72.199 35.8969 72.199 35.8969C72.199 35.9969 72.199 35.9969 72.199 36.0969C72.199 36.0969 72.199 37.6969 71.099 38.8969C70.499 39.4969 69.599 39.8969 68.399 40.0969V31.6969C69.699 31.8969 70.6991 32.2969 71.2991 32.9969Z" fill="#3B7AB0"/>
<path d="M67 56.0984C52.7 56.0984 41 44.3984 41 29.9984C41 15.5984 52.7 3.89844 67 3.89844C81.3 3.89844 93.1 15.5984 93.1 29.9984C93.1 44.3984 81.4 56.0984 67 56.0984ZM67 7.09844C54.4 7.09844 44.2 17.3984 44.2 29.9984C44.2 42.5984 54.5 52.8984 67.1 52.8984C79.7 52.8984 90 42.5984 90 29.9984C89.9 17.3984 79.6 7.09844 67 7.09844Z" fill="#3B7AB0"/>
</svg>
