<svg width="88" height="89" viewBox="0 0 88 89" fill="none" xmlns="http://www.w3.org/2000/svg">
<path d="M2.1687 42.3006H12.0812V81.8467C12.0812 85.1454 14.7657 87.839 18.0569 87.839H70.2731C73.5643 87.839 76.2488 85.1454 76.2488 81.8467V42.3006H86.1612C86.4547 42.3074 86.7431 42.2239 86.9877 42.0614C87.2335 41.8981 87.423 41.663 87.5307 41.3881C87.6383 41.1132 87.659 40.8118 87.5899 40.5248C87.521 40.2389 87.3663 39.9809 87.1466 39.7857C87.1458 39.785 87.1449 39.7842 87.1441 39.7835L45.1488 1.08004C44.9877 0.931458 44.7948 0.821738 44.5848 0.75934C44.3761 0.697307 44.156 0.683694 43.9413 0.719518C43.6582 0.760854 43.394 0.886011 43.1825 1.07885L43.1825 1.07885L43.1813 1.07995L1.18335 39.7857C0.963606 39.9809 0.80893 40.2389 0.740071 40.5248C0.670949 40.8118 0.691611 41.1132 0.79928 41.3881C0.906952 41.663 1.09646 41.8981 1.3422 42.0614C1.5868 42.2239 1.87526 42.3074 2.1687 42.3006ZM52.983 37.1509L52.983 37.1508L52.9743 37.1526C52.728 37.2019 52.4991 37.3151 52.3103 37.4809C52.1214 37.6466 51.9793 37.8589 51.898 38.0967L51.8972 38.0992C51.1658 40.2997 49.4771 42.2854 47.2813 44.2088C45.452 45.8112 43.297 47.3487 41.0937 48.9207C40.6532 49.235 40.2108 49.5507 39.7686 49.8685C37.1229 51.7703 34.5163 53.7639 32.5131 56.1449C30.5042 58.5326 29.1082 61.3899 29.1082 64.7698C29.1082 68.8259 30.2963 72.163 32.6512 74.5366C31.8772 75.1934 31.1344 75.8862 30.4581 76.67C28.62 78.8001 27.3044 81.487 26.9369 84.9621H18.0569C16.3172 84.9621 14.9515 83.5937 14.9515 81.8467V40.8621C14.9514 40.4809 14.8004 40.1151 14.5314 39.8453C14.2623 39.5754 13.8972 39.4237 13.5164 39.4236H5.87727L44.165 4.12781L82.4527 39.4236H74.8136C74.4327 39.4237 74.0676 39.5754 73.7986 39.8453C73.5295 40.1151 73.3785 40.4809 73.3785 40.8621V81.8467C73.3785 83.5937 72.0128 84.9621 70.2731 84.9621H29.8147C30.1524 82.2203 31.1559 80.2472 32.6151 78.5562C33.294 77.7694 34.0953 77.0495 34.9657 76.3429C37.6662 77.9667 41.1591 78.7313 45.3001 78.7313C50.2041 78.7313 54.3352 76.2354 57.1382 72.5653C59.9386 68.8987 61.492 64.0539 61.492 59.0775C61.492 51.8672 59.4311 43.0596 54.282 37.5986C54.1205 37.4215 53.9173 37.2877 53.6909 37.2094C53.4636 37.1308 53.2201 37.1107 52.983 37.1509ZM48.3334 47.0672C50.3549 45.3473 52.1507 43.4654 53.3925 41.2728C56.8678 46.0261 58.6217 53.1078 58.6217 59.0775C58.6217 63.4519 57.2226 67.71 54.8522 70.8137C52.4841 73.9143 49.2265 75.8544 45.3001 75.8544C42.1139 75.8544 39.5184 75.3708 37.5164 74.4668C37.6222 74.3906 37.7278 74.3141 37.8336 74.2376C38.2316 73.9493 38.6317 73.6597 39.0474 73.379L38.8795 73.1304L39.0474 73.379L39.0911 73.3494C44.0994 69.9675 50.0228 65.9676 52.3644 57.1659C52.4291 56.9442 52.4396 56.7102 52.3949 56.4835C52.35 56.2555 52.2506 56.0417 52.1052 55.8604C51.9598 55.6792 51.7726 55.536 51.5598 55.4431C51.3472 55.3504 51.1155 55.3106 50.8842 55.3272C50.582 55.3466 50.2936 55.4613 50.0605 55.6549C49.8273 55.8484 49.6612 56.1108 49.5859 56.4045C47.5079 64.2181 42.5434 67.5704 37.5447 70.9457L37.4701 70.9962L37.3323 71.0892C36.5252 71.6341 35.7154 72.1809 34.9274 72.7456C33.0088 70.9719 31.9785 68.4337 31.9785 64.7698C31.9785 62.1842 32.9942 60.0297 34.7104 57.9898C36.4314 55.9442 38.8609 54.0789 41.4668 52.2057C41.8823 51.907 42.3017 51.6081 42.7228 51.3081C44.6328 49.9471 46.5755 48.5628 48.3334 47.0672Z" fill="#3B7AB0" stroke="#3B7AB0" stroke-width="0.6"/>
</svg>
