<svg xmlns="http://www.w3.org/2000/svg" version="1.1" xmlns:xlink="http://www.w3.org/1999/xlink" xmlns:svgjs="http://svgjs.dev/svgjs" viewBox="0 0 800 400"><path d="M-0.44843047857284546,395.51568603515625C10.814649096230667,373.80866149902346,13.860988857050735,317.24065287272134,48.87892532348633,300.44842529296875C83.89686178992193,283.65619771321616,119.1255562655131,336.71747784932455,152.914794921875,321.97308349609375C186.7040335782369,307.22868914286295,165.52915486653646,245.90881022135417,196.86099243164062,235.8744354248047C228.1928299967448,225.8400606282552,262.0792198689779,290.31391237894695,290.134521484375,278.02691650390625C318.1898230997721,265.73992062886555,294.33779729207356,199.2645709737142,319.7309265136719,182.06277465820312C345.1240557352702,164.86097834269205,374.72347793579104,213.95365979512533,401.3453063964844,202.69058227539062C427.9671348571777,191.42750475565592,412.9775904337565,144.81763936360676,436.3228759765625,132.7354278564453C459.6681615193685,120.65321634928385,479.6277907307943,162.06278322855633,503.5874328613281,149.77578735351562C527.547074991862,137.48879147847492,514.8385676574707,88.95814711252848,541.255615234375,78.92376708984375C567.6726628112793,68.88938706715902,594.2989712524414,118.32137640953064,619.2825317382812,105.82959747314453C644.266092224121,93.33781853675842,627.7369446818034,35.27354283650716,650.6726684570312,24.215246200561523C673.6083922322591,13.156949564615886,698.2287133789063,61.904332853158316,719.73095703125,57.39910125732422C741.2332006835937,52.89386966149012,726.6173709106446,10.013452351888022,744.8430786132812,4.484304904937744C763.0687863159179,-1.0448425420125336,787.0598014322917,26.630792577266693,799.5515747070312,33.18385696411133" fill="none" stroke-width="9" stroke="#c3c3c3" stroke-linecap="round" stroke-dasharray="14 16"></path><defs><linearGradient id="SvgjsLinearGradient1002"><stop stop-color="hsl(37, 99%, 67%)" offset="0"></stop><stop stop-color="hsl(316, 73%, 52%)" offset="1"></stop></linearGradient></defs></svg>